<?xml version="1.0" encoding="UTF-8"?>
<svg width="48px" height="36px" viewBox="0 0 48 36" version="1.1" xmlns="http://www.w3.org/2000/svg" xmlns:xlink="http://www.w3.org/1999/xlink">
    <!-- Generator: Sketch 62 (91390) - https://sketch.com -->
    <title>noun_Quote_953510</title>
    <desc>Created with Sketch.</desc>
    <g id="Page-1" stroke="none" stroke-width="1" fill="none" fill-rule="evenodd">
        <g id="v17_B" transform="translate(-469.000000, -3331.000000)" fill="#BBE1FD" fill-rule="nonzero">
            <g id="05.-Dont-just-take" transform="translate(250.000000, 3033.000000)">
                <g id="review-1" transform="translate(0.000000, 135.000000)">
                    <g id="noun_Quote_953510" transform="translate(219.000000, 163.000000)">
                        <path d="M46.0310611,7.2 C40.7839971,7.56 36.3120676,10.86 34.1655414,15.42 L40.9628743,15.42 C43.7652834,15.42 46.0906868,17.7 46.0906868,20.58 L46.0906868,30.84 C46.0906868,33.66 43.8249092,36 40.9628743,36 L30.6476236,36 C27.8452144,36 25.5198111,33.72 25.5198111,30.84 L25.5198111,20.58 C25.5198111,9.24 34.702173,0 45.9714353,0 C45.9714353,0 47.9987101,0 47.9987101,2.04 C47.9987101,2.04 47.9987101,2.4 47.9987101,5.1 C48.0583358,7.2 46.0310611,7.2 46.0310611,7.2 Z M20.4516243,7.2 C15.2045603,7.56 10.7326308,10.86 8.58610465,15.42 L15.3834375,15.42 C18.1858467,15.42 20.51125,17.7 20.51125,20.58 L20.51125,30.84 C20.51125,33.66 18.2454724,36 15.3834375,36 L5.1278125,36 C2.32540334,36 0,33.72 0,30.84 L0,20.58 C0,9.24 9.18236192,0 20.4516243,0 C20.4516243,0 22.478899,0 22.478899,2.04 C22.478899,2.04 22.478899,2.4 22.478899,5.1 C22.478899,7.2 20.4516243,7.2 20.4516243,7.2 Z" id="Shape"></path>
                    </g>
                </g>
            </g>
        </g>
    </g>
</svg>