<?xml version="1.0" encoding="UTF-8"?>
<svg width="83px" height="83px" viewBox="0 0 83 83" version="1.1" xmlns="http://www.w3.org/2000/svg" xmlns:xlink="http://www.w3.org/1999/xlink">
    <!-- Generator: Sketch 61.1 (89650) - https://sketch.com -->
    <title>ill_Global Support_4 block</title>
    <desc>Created with Sketch.</desc>
    <defs>
        <polygon id="path-1" points="0.905583772 0.49 5.65854061 0.49 5.65854061 3.109 0.905583772 3.109"></polygon>
        <polygon id="path-3" points="0 0.533045832 82.608 0.533045832 82.608 82.9997 0 82.9997"></polygon>
    </defs>
    <g id="Page-1" stroke="none" stroke-width="1" fill="none" fill-rule="evenodd">
        <g id="v17_B" transform="translate(-898.000000, -2635.000000)">
            <g id="04.Trusted-by-100k+" transform="translate(397.000000, 2426.000000)">
                <g id="Global-Support" transform="translate(501.000000, 208.000000)">
                    <g id="ill_Global-Support_4-block">
                        <path d="M65.5322,41.6874 C65.5322,55.1764 54.5962,66.1124 41.1072,66.1124 C27.6172,66.1124 16.6822,55.1764 16.6822,41.6874 C16.6822,28.1984 27.6172,17.2624 41.1072,17.2624 C54.5962,17.2624 65.5322,28.1984 65.5322,41.6874" id="Fill-1" fill="#BBE1FD"></path>
                        <path d="M50.7031,63.5336 C49.6351,63.7086 48.1231,63.8006 45.0021,63.8006 C41.4371,63.7086 40.5531,64.9606 39.6591,65.5786 C38.7651,65.4866 37.7891,65.4036 36.8961,65.2196 C36.7211,65.1276 33.8741,64.7606 32.3551,63.8846 C23.7161,60.4116 16.9521,53.6456 16.5231,40.8256 C16.4081,37.3556 18.6921,32.2326 20.1641,30.7616 C17.8891,34.2406 16.5511,36.6996 16.5511,40.7986 C16.5511,43.4696 17.1211,50.0046 19.7921,54.1026 C22.8221,58.6436 28.9661,61.6556 30.3931,61.3046 C32.9731,60.5036 24.5161,59.2596 29.7671,49.6436 C35.0171,39.9356 22.9141,46.3466 21.1281,33.0816 C20.5021,28.2736 23.7991,29.7016 26.2031,26.1376 C27.9811,23.3736 31.5461,22.7566 31.1031,20.7946 C32.5301,20.0856 34.0411,19.5516 35.6441,19.1916 C33.9491,20.7026 32.4381,21.9546 35.9111,21.2376 C39.7421,20.4356 41.6961,19.7266 41.9631,18.5656 C44.0991,18.6576 46.0611,18.9246 48.0151,19.5426 C46.5881,19.3666 43.9161,19.3666 43.8331,21.2376 C43.6571,23.8166 43.2991,24.8016 42.0551,25.0686 C40.8111,25.3356 40.5441,25.6946 40.5441,26.2286 C40.6361,27.8316 42.1461,28.1906 44.6421,26.2286 C47.1391,24.2676 47.8481,26.8546 49.8091,27.2976 C51.7711,27.7396 51.5041,25.3356 53.1061,25.9616 C54.7101,26.5876 56.6711,30.0606 51.6801,29.7016 C46.6961,29.4346 44.2001,28.0066 40.5531,29.8766 C35.3861,32.4556 36.2781,40.1186 41.7131,40.0276 C46.1621,40.0276 47.4141,40.2026 48.8331,44.9276 C50.2521,49.6516 47.8561,51.3376 50.3521,54.9856 C52.8481,58.8176 58.7241,48.1326 58.5411,44.5686 C58.3571,41.0036 63.1741,39.3176 60.5031,35.1276 C57.8311,31.0286 61.0371,31.0286 63.3491,33.4326 C64.1501,36.1126 64.6841,38.9586 64.6841,41.9886 C64.6841,51.6046 58.9001,59.8856 50.7031,63.5336 M41.0911,17.5326 C27.5841,17.5326 16.6351,28.4816 16.6351,41.9886 C16.6351,55.4956 27.5841,66.4456 41.0911,66.4456 C54.5981,66.4456 65.5471,55.4956 65.5471,41.9886 C65.5471,28.4816 54.5981,17.5326 41.0911,17.5326" id="Fill-3" fill="#FFFFFF"></path>
                        <path d="M36.833,19.1142 C36.85,19.3772 36.779,19.6412 36.629,19.8622 C38.692,19.3922 39.74,19.0102 40.27,18.7382 C39.101,18.7792 37.952,18.9062 36.833,19.1142 M41.77,26.3802 C41.775,26.3982 41.782,26.4102 41.786,26.4162 C41.861,26.4112 42.087,26.3872 42.528,26.1782 C42.456,26.1982 42.381,26.2172 42.305,26.2332 C42.046,26.2882 41.877,26.3412 41.77,26.3802 M27.528,23.0952 C25.771,24.3602 24.197,25.8642 22.854,27.5592 C23.661,27.0842 24.485,26.5532 25.216,25.4712 C25.867,24.4592 26.715,23.7082 27.528,23.0952 M44.583,27.7402 C45.661,27.7542 46.735,27.9122 47.875,28.0802 C48.179,28.1242 48.492,28.1712 48.817,28.2162 C48.24,27.9602 47.774,27.6002 47.378,27.2942 C46.453,26.5802 46.286,26.4512 45.379,27.1652 C45.102,27.3832 44.836,27.5742 44.583,27.7402 M50.937,28.4572 C51.199,28.4782 51.468,28.4972 51.743,28.5122 C53.342,28.6252 53.693,28.2862 53.696,28.2832 C53.722,28.0602 53.208,27.3032 52.705,27.0842 C52.653,27.1432 52.593,27.2182 52.546,27.2772 C52.264,27.6252 51.772,28.2332 50.937,28.4572 M41.695,38.8362 C46.651,38.8362 48.381,39.2822 49.974,44.5842 C50.672,46.9082 50.529,48.6102 50.414,49.9782 C50.28,51.5822 50.191,52.6412 51.336,54.3132 C51.565,54.6662 51.651,54.6352 51.822,54.5802 C53.663,53.9812 57.501,47.5322 57.352,44.6292 C57.257,42.7932 58.16,41.4212 58.958,40.2102 C59.989,38.6422 60.671,37.6072 59.498,35.7672 C57.694,32.9992 58.249,31.6732 59.034,31.0492 C59.7,30.5202 60.58,30.4972 61.481,30.7962 C58.782,25.8962 54.368,22.0692 49.054,20.1272 C48.822,20.5372 48.365,20.7892 47.869,20.7252 C46.649,20.5752 45.525,20.6982 45.14,21.0252 C45.08,21.0752 45.03,21.1302 45.022,21.2902 C44.916,22.8642 44.746,24.2682 44.034,25.1942 C46.331,23.4782 47.893,24.6822 48.833,25.4082 C49.273,25.7482 49.653,26.0412 50.071,26.1352 C50.355,26.1992 50.354,26.1982 50.693,25.7782 C51.068,25.3152 51.943,24.2292 53.54,24.8522 C54.831,25.3562 56.392,27.1192 56.002,28.8452 C55.806,29.7132 54.977,31.1322 51.594,30.8892 C50.037,30.8062 48.704,30.6102 47.529,30.4372 C44.976,30.0602 43.289,29.8122 41.097,30.9372 C38.652,32.1562 38.006,34.5902 38.434,36.3382 C38.618,37.0932 39.297,38.8362 41.613,38.8362 C41.641,38.8372 41.642,38.8442 41.695,38.8362 M23.241,56.2412 C24.894,57.7362 26.74,58.8642 28.137,59.5132 C26.815,57.6762 25.758,54.5032 28.722,49.0722 C29.907,46.8822 29.978,45.8642 29.828,45.3972 C29.64,44.8072 28.851,44.3962 27.58,43.7752 C24.94,42.4832 20.956,40.5332 19.958,33.3172 C19.658,33.8192 19.386,34.3072 19.142,34.7952 C18.896,35.3662 18.661,35.9762 18.455,36.5992 C18.044,38.3302 17.826,40.1342 17.826,41.9892 C17.826,42.2552 17.83,42.5212 17.839,42.7852 C18.343,48.2022 20.15,52.6972 23.241,56.2412 M37.209,64.0672 C37.871,64.1982 38.6,64.2742 39.312,64.3462 C39.32,64.3392 39.33,64.3312 39.338,64.3232 C40.234,63.6062 41.582,62.5222 45.032,62.6102 C47.7,62.6092 49.276,62.5432 50.361,62.3822 C58.345,58.7622 63.493,50.7752 63.493,41.9892 C63.493,39.4422 63.101,36.8462 62.293,34.0612 C61.689,33.4892 61.134,33.1962 60.767,33.0702 C60.862,33.3572 61.067,33.8122 61.501,34.4772 C63.51,37.6282 62.028,39.8772 60.947,41.5202 C60.266,42.5552 59.677,43.4502 59.73,44.5072 C59.897,47.7602 56.014,55.7222 52.558,56.8452 C51.291,57.2582 50.123,56.8172 49.354,55.6362 C47.747,53.2872 47.896,51.5042 48.041,49.7792 C48.148,48.4912 48.26,47.1602 47.692,45.2702 C46.476,41.2182 45.841,41.2182 41.713,41.2182 C41.677,41.2182 41.639,41.2182 41.604,41.2182 C38.916,41.2192 36.763,39.5352 36.119,36.9042 C35.474,34.2662 36.419,30.6082 40.021,28.8112 C40.24,28.6982 40.456,28.5972 40.669,28.5052 C39.891,28.1152 39.413,27.3162 39.354,26.2972 C39.353,24.4302 41.134,24.0482 41.805,23.9042 C42.115,23.8372 42.468,23.7612 42.645,21.1562 C42.666,20.6712 42.807,20.2192 43.058,19.8252 C42.929,19.8152 42.799,19.8062 42.667,19.7972 C41.729,21.0172 39.542,21.6942 36.155,22.4032 C34.973,22.6462 33.357,22.9802 32.77,21.8062 C32.7,21.6692 32.654,21.5352 32.63,21.4032 C32.521,21.4492 32.412,21.4962 32.305,21.5452 C32.096,22.8022 30.913,23.6242 29.845,24.3672 C28.923,25.0082 27.878,25.7352 27.205,26.7812 C26.094,28.4292 24.849,29.1542 23.848,29.7372 C22.526,30.5062 22.031,30.7942 22.309,32.9282 C23.118,38.9392 26.173,40.4342 28.628,41.6352 C30.15,42.3802 31.589,43.0842 32.097,44.6702 C32.538,46.0472 32.143,47.7562 30.815,50.2102 C27.686,55.9432 29.83,58.0302 31.111,59.2762 C31.647,59.7982 32.256,60.3892 32.049,61.2532 C31.958,61.6312 31.73,61.9352 31.371,62.1632 C31.835,62.3782 32.312,62.5832 32.8,62.7792 C32.852,62.8002 32.901,62.8242 32.95,62.8522 C33.934,63.4192 35.797,63.7802 36.593,63.9332 C36.893,63.9912 37.07,64.0262 37.209,64.0672 M44.617,64.9872 C43.79,64.9892 43.16,65.0712 42.658,65.2012 C43.318,65.1572 43.973,65.0852 44.617,64.9872 M41.091,67.6362 C31.813,67.6362 23.669,62.6832 19.165,55.2832 C19.039,55.1122 18.919,54.9392 18.802,54.7642 C17.747,53.1452 16.992,51.1652 16.463,49.1592 C15.925,47.3112 15.588,45.3742 15.48,43.3802 C15.439,42.9092 15.41,42.4612 15.391,42.0452 C15.366,41.6562 15.347,41.2632 15.333,40.8662 C15.312,40.2382 15.36,39.5682 15.463,38.8782 C15.61,37.5562 15.912,36.3832 16.335,35.2742 C19.294,24.3792 29.271,16.3412 41.091,16.3412 C55.233,16.3412 66.738,27.8462 66.738,41.9892 C66.738,56.1312 55.233,67.6362 41.091,67.6362" id="Fill-5" fill="#00B388"></path>
                        <g id="Group-9" transform="translate(34.000000, 0.510100)">
                            <mask id="mask-2" fill="white">
                                <use xlink:href="#path-1"></use>
                            </mask>
                            <g id="Clip-8"></g>
                            <path d="M2.0957,3.109 C1.5057,3.109 0.9927,2.672 0.9157,2.071 C0.8307,1.419 1.2907,0.821 1.9437,0.736 C2.7527,0.631 3.5747,0.55 4.3847,0.493 C5.0567,0.445 5.6107,0.942 5.6557,1.599 C5.7007,2.255 5.2057,2.824 4.5507,2.87 C3.7857,2.923 3.0127,3 2.2497,3.099 C2.1987,3.106 2.1467,3.109 2.0957,3.109" id="Fill-7" fill="#00B388" mask="url(#mask-2)"></path>
                        </g>
                        <g id="Group-12" transform="translate(0.000000, 0.510100)">
                            <mask id="mask-4" fill="white">
                                <use xlink:href="#path-3"></use>
                            </mask>
                            <g id="Clip-11"></g>
                            <path d="M49.3379,3.5787 C49.2589,3.5787 49.1789,3.5707 49.0999,3.5547 C47.6239,3.2547 46.1129,3.0377 44.6069,2.9117 C43.9509,2.8567 43.4639,2.2807 43.5189,1.6247 C43.5739,0.9707 44.1639,0.4797 44.8059,0.5377 C46.4029,0.6717 48.0079,0.9017 49.5739,1.2207 C50.2179,1.3507 50.6349,1.9797 50.5039,2.6247 C50.3889,3.1887 49.8929,3.5787 49.3379,3.5787 L49.3379,3.5787 Z M59.6139,7.1877 C59.4309,7.1877 59.2449,7.1447 59.0709,7.0557 C57.7289,6.3657 56.3309,5.7477 54.9179,5.2207 C54.3009,4.9907 53.9869,4.3047 54.2179,3.6877 C54.4479,3.0707 55.1359,2.7587 55.7499,2.9887 C57.2519,3.5487 58.7349,4.2047 60.1599,4.9367 C60.7449,5.2377 60.9759,5.9557 60.6749,6.5407 C60.4639,6.9517 60.0469,7.1877 59.6139,7.1877 L59.6139,7.1877 Z M68.5349,13.4327 C68.2449,13.4327 67.9549,13.3277 67.7259,13.1157 C66.6199,12.0917 65.4409,11.1217 64.2199,10.2317 C63.6889,9.8437 63.5719,9.0987 63.9599,8.5677 C64.3479,8.0357 65.0919,7.9187 65.6239,8.3067 C66.9189,9.2507 68.1699,10.2807 69.3439,11.3667 C69.8269,11.8137 69.8569,12.5667 69.4089,13.0507 C69.1749,13.3037 68.8559,13.4327 68.5349,13.4327 L68.5349,13.4327 Z M75.4569,21.8357 C75.0589,21.8357 74.6679,21.6357 74.4419,21.2697 C73.6509,19.9897 72.7749,18.7397 71.8379,17.5557 C71.4289,17.0387 71.5169,16.2897 72.0319,15.8817 C72.5469,15.4737 73.2959,15.5607 73.7049,16.0767 C74.6999,17.3327 75.6309,18.6597 76.4699,20.0187 C76.8159,20.5787 76.6419,21.3117 76.0819,21.6587 C75.8869,21.7787 75.6709,21.8357 75.4569,21.8357 L75.4569,21.8357 Z M79.8609,31.7887 C79.3439,31.7887 78.8669,31.4487 78.7179,30.9267 C78.3009,29.4757 77.7939,28.0367 77.2109,26.6457 C76.9559,26.0397 77.2409,25.3417 77.8489,25.0867 C78.4549,24.8317 79.1529,25.1187 79.4069,25.7247 C80.0259,27.2007 80.5649,28.7287 81.0069,30.2687 C81.1899,30.9007 80.8229,31.5607 80.1919,31.7427 C80.0809,31.7737 79.9709,31.7887 79.8609,31.7887 L79.8609,31.7887 Z M81.4169,42.5627 C80.7639,42.5627 80.2319,42.0367 80.2259,41.3817 C80.2139,39.8697 80.1139,38.3457 79.9289,36.8517 C79.8479,36.1997 80.3119,35.6037 80.9639,35.5227 C81.6139,35.4417 82.2119,35.9057 82.2929,36.5587 C82.4889,38.1427 82.5959,39.7597 82.6089225,41.3627 C82.6129,42.0207 82.0839,42.5577 81.4269,42.5627 L81.4169,42.5627 Z M1.1919,42.8687 L1.1909,42.8687 C0.5329,42.8687 -0.0001,42.3347 -0.0001,41.6767 C0.0009,40.0727 0.0949,38.4547 0.2789,36.8697 C0.3559,36.2157 0.9399,35.7457 1.6009,35.8237 C2.2539,35.8997 2.7219,36.4907 2.6459,37.1437 C2.4719,38.6397 2.3829,40.1647 2.3819,41.6787 C2.3819,42.3357 1.8489,42.8687 1.1919,42.8687 L1.1919,42.8687 Z M80.0369,53.3627 C79.9339,53.3627 79.8299,53.3497 79.7259,53.3217 C79.0909,53.1497 78.7149,52.4957 78.8859,51.8607 C79.2779,50.4087 79.5889,48.9137 79.8089,47.4177 C79.9049,46.7667 80.5119,46.3147 81.1609,46.4127 C81.8119,46.5087 82.2619,47.1147 82.1659,47.7657 C81.9319,49.3527 81.6029,50.9397 81.1859,52.4817 C81.0429,53.0127 80.5619,53.3627 80.0369,53.3627 L80.0369,53.3627 Z M2.6519,53.6577 C2.1309,53.6577 1.6509,53.3127 1.5049,52.7857 C1.0769,51.2457 0.7349,49.6617 0.4889,48.0767 C0.3889,47.4267 0.8339,46.8177 1.4839,46.7167 C2.1319,46.6207 2.7429,47.0617 2.8439,47.7117 C3.0749,49.2047 3.3979,50.6977 3.8009,52.1467 C3.9769,52.7807 3.6069,53.4377 2.9729,53.6137 C2.8649,53.6427 2.7579,53.6577 2.6519,53.6577 L2.6519,53.6577 Z M75.7859,63.3917 C75.5779,63.3917 75.3679,63.3387 75.1779,63.2247 C74.6119,62.8877 74.4269,62.1567 74.7649,61.5907 C75.5359,60.2957 76.2399,58.9407 76.8569,57.5617 C77.1249,56.9617 77.8279,56.6897 78.4299,56.9607 C79.0299,57.2287 79.2989,57.9337 79.0309,58.5347 C78.3769,59.9977 77.6299,61.4367 76.8099,62.8107 C76.5869,63.1847 76.1919,63.3917 75.7859,63.3917 L75.7859,63.3917 Z M6.9759,63.6477 C6.5729,63.6477 6.1799,63.4437 5.9559,63.0737 C5.1249,61.7037 4.3669,60.2707 3.7049,58.8177 C3.4329,58.2187 3.6959,57.5127 4.2949,57.2397 C4.8959,56.9677 5.6009,57.2307 5.8729,57.8287 C6.4969,59.1987 7.2099,60.5477 7.9929,61.8397 C8.3339,62.4017 8.1549,63.1347 7.5919,63.4747 C7.3989,63.5927 7.1869,63.6477 6.9759,63.6477 L6.9759,63.6477 Z M68.9989,71.9057 C68.6849,71.9057 68.3709,71.7827 68.1369,71.5367 C67.6829,71.0607 67.6999,70.3077 68.1759,69.8527 C69.2669,68.8117 70.3099,67.6947 71.2739,66.5327 C71.6939,66.0267 72.4439,65.9567 72.9499,66.3767 C73.4569,66.7977 73.5259,67.5477 73.1069,68.0547 C72.0829,69.2867 70.9789,70.4717 69.8209,71.5767 C69.5899,71.7967 69.2939,71.9057 68.9989,71.9057 L68.9989,71.9057 Z M13.8239,72.1087 C13.5309,72.1087 13.2379,72.0017 13.0079,71.7857 C11.8429,70.6887 10.7299,69.5127 9.6969,68.2887 C9.2739,67.7857 9.3379,67.0337 9.8409,66.6097 C10.3439,66.1847 11.0959,66.2497 11.5199,66.7527 C12.4919,67.9077 13.5419,69.0167 14.6409,70.0507 C15.1189,70.5007 15.1429,71.2547 14.6919,71.7337 C14.4569,71.9827 14.1409,72.1087 13.8239,72.1087 L13.8239,72.1087 Z M60.1839,78.2897 C59.7589,78.2897 59.3469,78.0607 59.1319,77.6597 C58.8219,77.0797 59.0419,76.3577 59.6209,76.0477 C60.9509,75.3367 62.2539,74.5397 63.4909,73.6797 C64.0299,73.3037 64.7739,73.4367 65.1499,73.9767 C65.5249,74.5177 65.3909,75.2597 64.8519,75.6357 C63.5379,76.5487 62.1559,77.3937 60.7439,78.1487 C60.5669,78.2447 60.3739,78.2897 60.1839,78.2897 L60.1839,78.2897 Z M22.6919,78.4307 C22.5039,78.4307 22.3159,78.3857 22.1389,78.2927 C20.7209,77.5497 19.3319,76.7137 18.0099,75.8087 C17.4669,75.4377 17.3279,74.6967 17.6989,74.1537 C18.0709,73.6097 18.8129,73.4717 19.3559,73.8437 C20.6009,74.6957 21.9089,75.4827 23.2459,76.1837 C23.8279,76.4897 24.0519,77.2097 23.7469,77.7917 C23.5339,78.1977 23.1189,78.4307 22.6919,78.4307 L22.6919,78.4307 Z M49.9689,82.0617 C49.4209,82.0617 48.9289,81.6827 48.8059,81.1267 C48.6649,80.4847 49.0699,79.8487 49.7129,79.7067 C51.1859,79.3837 52.6539,78.9677 54.0799,78.4727 C54.7019,78.2557 55.3809,78.5857 55.5959,79.2067 C55.8119,79.8287 55.4829,80.5077 54.8609,80.7237 C53.3479,81.2487 51.7879,81.6897 50.2259,82.0337 C50.1389,82.0527 50.0529,82.0617 49.9689,82.0617 L49.9689,82.0617 Z M32.9399,82.1267 C32.8579,82.1267 32.7749,82.1187 32.6909,82.1007 C31.1229,81.7677 29.5589,81.3387 28.0419,80.8247 C27.4189,80.6137 27.0849,79.9367 27.2959,79.3137 C27.5069,78.6917 28.1849,78.3557 28.8069,78.5687 C30.2349,79.0527 31.7079,79.4567 33.1859,79.7697 C33.8289,79.9067 34.2399,80.5387 34.1039,81.1827 C33.9839,81.7427 33.4899,82.1267 32.9399,82.1267 L32.9399,82.1267 Z M41.3219,82.9997 L41.3039,82.9997 C40.5579,82.9997 39.8009,82.9797 39.0559,82.9397 C38.3989,82.9047 37.8949,82.3437 37.9299,81.6857 C37.9639,81.0307 38.5149,80.5297 39.1829,80.5607 C39.8919,80.5997 40.5769,80.6007 41.3219,80.6177 C42.1189,80.6177 42.9269,80.5927 43.7229,80.5447 C44.3899,80.4977 44.9439,81.0047 44.9839,81.6607 C45.0249,82.3167 44.5249,82.8817 43.8679,82.9217 C43.0249,82.9737 42.1669,82.9997 41.3219,82.9997 L41.3219,82.9997 Z" id="Fill-10" fill="#00B388" mask="url(#mask-4)"></path>
                        </g>
                        <path d="M2.6963,32.4765 C2.5893,32.4765 2.4803,32.4615 2.3723,32.4315 C1.7393,32.2525 1.3703,31.5945 1.5503,30.9615 C1.7703,30.1785 2.0183,29.3915 2.2873,28.6215 C2.5043,27.9995 3.1823,27.6755 3.8033,27.8885 C4.4253,28.1055 4.7533,28.7855 4.5363,29.4065 C4.2843,30.1305 4.0503,30.8715 3.8423,31.6085 C3.6933,32.1335 3.2163,32.4765 2.6963,32.4765" id="Fill-13" fill="#00B388"></path>
                        <path d="M7.6465,29.0014 C7.6465,31.0784 5.9625,32.7614 3.8855,32.7614 C1.8095,32.7614 0.1255,31.0784 0.1255,29.0014 C0.1255,26.9244 1.8095,25.2414 3.8855,25.2414 C5.9625,25.2414 7.6465,26.9244 7.6465,29.0014" id="Fill-15" fill="#00B388"></path>
                    </g>
                </g>
            </g>
        </g>
    </g>
</svg>