<?xml version="1.0" encoding="UTF-8"?>
<svg width="83px" height="84px" viewBox="0 0 83 84" version="1.1" xmlns="http://www.w3.org/2000/svg" xmlns:xlink="http://www.w3.org/1999/xlink">
    <!-- Generator: Sketch 61.1 (89650) - https://sketch.com -->
    <title>ill_Built for_4 block</title>
    <desc>Created with Sketch.</desc>
    <defs>
        <polygon id="path-1" points="0 83.2229 82.201 83.2229 82.201 -0.0001 0 -0.0001"></polygon>
    </defs>
    <g id="Page-1" stroke="none" stroke-width="1" fill="none" fill-rule="evenodd">
        <g id="v17_B" transform="translate(-444.000000, -2634.000000)">
            <g id="04.Trusted-by-100k+" transform="translate(397.000000, 2426.000000)">
                <g id="Built-for-all-trades" transform="translate(47.000000, 208.000000)">
                    <g id="ill_Built-for_4-block">
                        <path d="M9.961,16.6517 L9.961,77.3777 C9.961,77.6597 10.19,77.8897 10.473,77.8897 L49.03,77.8897 C56.283,77.8897 62.162,72.0097 62.162,64.7577 L62.162,16.6517 C62.162,16.3687 61.933,16.1397 61.649,16.1397 L10.295,16.1397" id="Fill-1" fill="#BAE1FF"></path>
                        <polygon id="Fill-3" fill="#00B388" points="44.4697 27.5013 62.5517 0.0003 80.6327 27.5013"></polygon>
                        <mask id="mask-2" fill="white">
                            <use xlink:href="#path-1"></use>
                        </mask>
                        <g id="Clip-6"></g>
                        <path d="M2.382,29.7289 L25.246,29.7289 L25.246,6.8639 L2.382,6.8639 L2.382,29.7289 Z M26.438,32.1109 L1.191,32.1109 C0.533,32.1109 0,31.5779 0,30.9199 L0,5.6729 C0,5.0149 0.533,4.4819 1.191,4.4819 L26.438,4.4819 C27.095,4.4819 27.629,5.0149 27.629,5.6729 L27.629,30.9199 C27.629,31.5779 27.095,32.1109 26.438,32.1109 L26.438,32.1109 Z" id="Fill-5" fill="#00B388" mask="url(#mask-2)"></path>
                        <path d="M29.086,62.9881 C29.086,65.9291 26.701,68.3141 23.76,68.3141 C20.817,68.3141 18.433,65.9291 18.433,62.9881 C18.433,60.0461 20.817,57.6611 23.76,57.6611 C26.701,57.6611 29.086,60.0461 29.086,62.9881" id="Fill-7" fill="#00B388" mask="url(#mask-2)"></path>
                        <path d="M69.2529,47.7142 C69.1089,47.7142 68.9639,47.6882 68.8209,47.6332 C67.4369,47.0952 65.9849,46.7392 64.5059,46.5752 C63.8519,46.5032 63.3809,45.9142 63.4529,45.2602 C63.5259,44.6062 64.1179,44.1352 64.7699,44.2082 C66.4529,44.3942 68.1069,44.8002 69.6839,45.4122 C70.2979,45.6512 70.6019,46.3412 70.3629,46.9542 C70.1809,47.4252 69.7299,47.7142 69.2529,47.7142 M53.8889,48.6452 C53.4639,48.6452 53.0529,48.4172 52.8379,48.0162 C52.5259,47.4362 52.7449,46.7142 53.3239,46.4032 C54.8169,45.6032 56.4089,45.0002 58.0549,44.6112 C58.6899,44.4602 59.3369,44.8562 59.4879,45.4962 C59.6399,46.1362 59.2429,46.7782 58.6029,46.9302 C57.1579,47.2712 55.7609,47.8002 54.4499,48.5032 C54.2719,48.5992 54.0779,48.6452 53.8889,48.6452 M77.8199,54.5302 C77.4409,54.5302 77.0649,54.3482 76.8359,54.0102 C75.9989,52.7822 75.0049,51.6652 73.8819,50.6892 C73.3849,50.2572 73.3319,49.5052 73.7639,49.0082 C74.1929,48.5122 74.9469,48.4592 75.4429,48.8912 C76.7219,50.0012 77.8519,51.2712 78.8039,52.6682 C79.1749,53.2112 79.0339,53.9522 78.4899,54.3232 C78.2849,54.4632 78.0519,54.5302 77.8199,54.5302 M46.2019,56.4432 C46.0179,56.4432 45.8299,56.4002 45.6559,56.3092 C45.0709,56.0072 44.8429,55.2882 45.1449,54.7042 C45.9209,53.2032 46.8919,51.8052 48.0279,50.5482 C48.4699,50.0602 49.2239,50.0232 49.7109,50.4642 C50.1989,50.9062 50.2359,51.6592 49.7949,52.1472 C48.7949,53.2512 47.9429,54.4802 47.2609,55.7982 C47.0489,56.2082 46.6329,56.4432 46.2019,56.4432 M44.2969,67.2232 C43.7049,67.2232 43.1919,66.7832 43.1159,66.1812 C43.0139,65.3632 42.9609,64.5302 42.9618861,63.7052 C42.9618861,62.8412 43.0189,61.9732 43.1299,61.1262 C43.2169,60.4742 43.8189,60.0172 44.4669,60.1012 C45.1189,60.1872 45.5779,60.7852 45.4919,61.4382 C45.3939,62.1822 45.3449,62.9452 45.3449,63.7062 C45.3439,64.4322 45.3899,65.1642 45.4809,65.8822 C45.5629,66.5352 45.0999,67.1312 44.4469,67.2142 C44.3969,67.2202 44.3469,67.2232 44.2969,67.2232 M80.4019,69.6082 C80.3019,69.6082 80.1989,69.5952 80.0979,69.5682 C79.4619,69.4002 79.0819,68.7492 79.2499,68.1122 C79.6269,66.6842 79.8179,65.2012 79.8179,63.7062 C79.8179,62.2432 79.6359,60.7922 79.2749,59.3922 C79.1099,58.7562 79.4939,58.1062 80.1309,57.9422 C80.7659,57.7782 81.4179,58.1602 81.5809,58.7972 C81.9919,60.3922 82.2009,62.0432 82.2009,63.7062 C82.2009,65.4062 81.9829,67.0932 81.5539,68.7202 C81.4119,69.2552 80.9299,69.6082 80.4019,69.6082 M48.8429,77.1792 C48.5159,77.1792 48.1909,77.0452 47.9539,76.7822 C46.8259,75.5212 45.8639,74.1182 45.0959,72.6132 C44.7959,72.0272 45.0279,71.3102 45.6139,71.0102 C46.2019,70.7132 46.9179,70.9432 47.2169,71.5292 C47.8929,72.8522 48.7379,74.0852 49.7309,75.1942 C50.1689,75.6842 50.1269,76.4372 49.6369,76.8762 C49.4089,77.0792 49.1249,77.1792 48.8429,77.1792 M74.5839,78.8812 C74.2479,78.8812 73.9159,78.7402 73.6799,78.4662 C73.2509,77.9672 73.3089,77.2152 73.8079,76.7862 C74.9369,75.8172 75.9359,74.7052 76.7799,73.4822 C77.1539,72.9402 77.8979,72.8042 78.4369,73.1782 C78.9789,73.5512 79.1139,74.2942 78.7409,74.8352 C77.7809,76.2262 76.6439,77.4902 75.3589,78.5932 C75.1349,78.7862 74.8579,78.8812 74.5839,78.8812 M58.2319,82.8092 C58.1409,82.8092 58.0459,82.7982 57.9519,82.7762 C56.3069,82.3782 54.7179,81.7662 53.2299,80.9572 C52.6509,80.6432 52.4379,79.9202 52.7519,79.3412 C53.0659,78.7622 53.7879,78.5502 54.3679,78.8642 C55.6739,79.5742 57.0679,80.1102 58.5119,80.4602 C59.1509,80.6152 59.5439,81.2582 59.3899,81.8982 C59.2579,82.4432 58.7709,82.8092 58.2319,82.8092 M64.5359,83.2232 C63.9349,83.2232 63.4179,82.7682 63.3539,82.1572 C63.2839,81.5022 63.7589,80.9162 64.4129,80.8472 C65.8949,80.6912 67.3479,80.3432 68.7319,79.8142 C69.3459,79.5812 70.0359,79.8872 70.2709,80.5022 C70.5049,81.1162 70.1969,81.8042 69.5819,82.0392 C68.0049,82.6422 66.3499,83.0382 64.6629,83.2162 C64.6209,83.2212 64.5779,83.2232 64.5359,83.2232" id="Fill-8" fill="#00B388" mask="url(#mask-2)"></path>
                    </g>
                </g>
            </g>
        </g>
    </g>
</svg>