<?xml version="1.0" encoding="UTF-8"?>
<svg width="423px" height="364px" viewBox="0 0 423 364" version="1.1" xmlns="http://www.w3.org/2000/svg" xmlns:xlink="http://www.w3.org/1999/xlink">
    <!-- Generator: Sketch 61.1 (89650) - https://sketch.com -->
    <title>ill_before_2n block</title>
    <desc>Created with Sketch.</desc>
    <defs>
        <polygon id="path-1" points="0.30258005 0.243302211 47.8272706 0.243302211 47.8272706 75 0.30258005 75"></polygon>
        <polygon id="path-3" points="0 0.456541758 49.2483333 0.456541758 49.2483333 58.5838502 0 58.5838502"></polygon>
        <polygon id="path-5" points="0 365 423 365 423 0 0 0"></polygon>
    </defs>
    <g id="Page-1" stroke="none" stroke-width="1" fill="none" fill-rule="evenodd">
        <g id="v17_B" transform="translate(-250.000000, -1159.000000)">
            <g id="02.Make-more,-manage-less" transform="translate(250.000000, 875.000000)">
                <g id="Before" transform="translate(0.000000, 196.000000)">
                    <g id="ill_before_2n-block" transform="translate(0.000000, 88.000000)">
                        <path d="M396.365452,154 L412.529672,154 C412.790655,154 413,154.211547 413,154.473529 L413,198.878779 C413,205.57403 407.594714,211 400.92638,211 L365.470328,211 C365.210741,211 365,210.788453 365,210.527872 L365,170.608539" id="Fill-1" fill="#BAE1FF"></path>
                        <polygon id="Fill-3" fill="#00B388" points="380 168 385.918363 164.100272 392 168 392 155 380 155"></polygon>
                        <path d="M402.240673,194 L374.760754,194 C374.341126,194 374,193.552632 374,193 C374,192.447368 374.341126,192 374.760754,192 L402.240673,192 C402.660301,192 403,192.447368 403,193 C403,193.552632 402.660301,194 402.240673,194" id="Fill-5" fill="#00B388"></path>
                        <path d="M396.230426,200 L373.769574,200 C373.344283,200 373,199.552632 373,199 C373,198.447368 373.344283,198 373.769574,198 L396.230426,198 C396.655717,198 397,198.447368 397,199 C397,199.552632 396.655717,200 396.230426,200" id="Fill-7" fill="#00B388"></path>
                        <path d="M323.837053,292.628015 C323.666836,289.847055 321.882352,289.164959 319.866262,291.103329 L313.915656,296.849263 C311.906542,298.7904 310.802925,302.588278 311.474025,305.294525 L321.860029,346.383551 C322.540895,349.085648 322.208833,349.194949 321.123354,346.627058 L306.098249,311.108253 C305.01835,308.538978 302.498586,308.032595 300.503424,309.988951 L299.810001,310.662746 C297.816234,312.619103 294.513752,315.790227 292.485105,317.711995 L285.790848,324.041791 C283.762201,325.966326 282.090729,327.533902 282.073987,327.532518 C282.058639,327.528368 282.009807,327.518683 282,327.529751 C281.990274,327.539436 283.75662,328.99356 285.924789,330.760369 L324.354679,362.068994 C326.522848,363.837187 328.158044,363.0112 327.987827,360.231624 L323.837053,292.628015 Z" id="Fill-9" fill="#FFFFFF"></path>
                        <g id="Group-13" transform="translate(281.000000, 289.000000)">
                            <mask id="mask-2" fill="white">
                                <use xlink:href="#path-1"></use>
                            </mask>
                            <g id="Clip-12"></g>
                            <path d="M41.9429935,59.9811111 C41.8550225,60.1755556 41.7028189,60.3088889 41.4682298,60.3880556 C40.6387898,60.6616667 40.2073135,59.7491667 39.5161135,58.1102778 L24.4786735,22.4561111 C24.0527825,21.4394444 23.3713571,20.7908333 22.5572771,20.6283333 C21.7473862,20.4672222 20.8704698,20.8019444 20.0871098,21.5713889 L19.3917207,22.2505556 C17.4172625,24.195 14.1092771,27.3783333 12.0538298,29.3325 L5.35268073,35.6894444 C3.74127709,37.2213889 2.78895709,38.1269444 2.19969164,38.6588889 C2.86017164,39.2075 3.99401891,40.1394444 5.44623709,41.3255556 L43.9076771,72.7561111 C44.6798662,73.3866667 45.4031825,73.6575 45.7941644,73.4588889 C46.1851462,73.2602778 46.3904116,72.52 46.330368,71.5283333 L42.1761862,3.66444444 L42.1761862,3.66305556 C42.1147462,2.65055556 41.8075462,1.94083333 41.3565207,1.76722222 C40.9040989,1.59222222 40.1961425,1.91166667 39.4616553,2.61861111 L33.5061644,8.38527778 C31.6853062,10.1491667 30.6603753,13.7088889 31.2663971,16.1575 L41.6595316,57.4019444 C41.9695244,58.6352778 42.1636189,59.4922222 41.9429935,59.9811111 L41.9429935,59.9811111 Z M0.367662545,38.3519444 C0.401175273,38.2769444 0.445858909,38.2088889 0.503109818,38.1491667 C0.572928,38.0755556 0.665088,38.0186111 0.768418909,37.9783333 C1.18313891,37.5963889 2.56274618,36.2963889 4.32635345,34.62 L11.0275025,28.2644444 C13.0773644,26.3158333 16.3769716,23.1394444 18.3486371,21.1977778 L19.0440262,20.5186111 C20.1890444,19.3936111 21.5407244,18.9186111 22.8505135,19.1783333 C24.1630953,19.4408333 25.2285207,20.4019444 25.8499025,21.8852778 L39.0860335,53.27 L29.8239535,16.5144444 C29.0950516,13.5672222 30.2819607,9.44638889 32.4700625,7.32555556 L38.4255535,1.56027778 C40.0411462,0.000555555556 41.292288,0.1575 41.8941207,0.389444444 C42.4945571,0.621388889 43.5236771,1.34222222 43.6591244,3.57416667 L47.8133062,71.4380556 C47.9515462,73.6769444 47.0313425,74.4894444 46.4700044,74.7741667 C45.9086662,75.0602778 44.7077935,75.3241667 42.9637353,73.8991667 L4.50229527,42.4686111 C0.331357091,39.0602778 0.331357091,39.0602778 0.304826182,38.7116667 C0.295051636,38.5880556 0.317393455,38.4630556 0.367662545,38.3519444 L0.367662545,38.3519444 Z" id="Fill-11" fill="#00B388" mask="url(#mask-2)"></path>
                        </g>
                        <path d="M286.016363,299.009232 C285.669948,298.685405 290.938744,306.988657 290.938744,306.988657 C292.42162,309.330174 295.276464,309.680294 297.270062,307.759475 L301.828228,303.385045 C303.824565,301.46561 303.208411,299.834021 300.449413,299.750989 C300.448044,299.749605 286.372363,299.341362 286.016363,299.009232" id="Fill-14" fill="#BAE1FF"></path>
                        <path d="M325.413834,103.716492 C323.968393,103.905032 322.49502,104 320.999302,104 C302.222526,104 287,88.7785582 287,70 C287,51.2228384 302.222526,36 320.999302,36 C339.777474,36 355,51.2228384 355,70 C355,73.9174368 354.336633,77.6798521 353.117434,81.1825015" id="Fill-16" fill="#FFFFFF"></path>
                        <path d="M320.770441,105 C320.354063,105 320,104.62459 320,104.160849 C320,103.697107 320.318657,103.321698 320.735035,103.321698 C322.236262,103.321698 323.709164,103.216015 325.149492,103.007805 C325.564454,102.944711 325.941177,103.271222 325.993578,103.731809 C326.047396,104.192396 325.757064,104.613549 325.343519,104.673488 C323.839459,104.891163 322.299993,105 320.770441,105" id="Fill-18" fill="#00B388"></path>
                        <path d="M306.692141,40.3650123 C306.416453,40.3650123 306.153297,40.2122759 306.025199,39.9498468 C305.845584,39.5832793 305.998744,39.1403436 306.367721,38.9612254 C309.259659,37.5574384 312.332606,36.5646514 315.500232,36.0120231 C315.91098,35.9384319 316.28831,36.2105805 316.357928,36.6118608 C316.428939,37.0131412 316.160213,37.3963709 315.756427,37.467185 C312.725252,37.9962086 309.783188,38.9473402 307.01517,40.2900326 C306.910742,40.3414076 306.800746,40.3650123 306.692141,40.3650123 M339.720395,42.2561674 C339.583943,42.2561674 339.444707,42.2186776 339.322179,42.1409208 C336.722636,40.485813 333.910062,39.2056037 330.963821,38.3336174 C330.569782,38.2169822 330.347004,37.8059823 330.46257,37.4144215 C330.579529,37.0228608 330.991668,36.7993101 331.384315,36.9173338 C334.464223,37.8281985 337.403502,39.1667253 340.118611,40.8954244 C340.463917,41.1148095 340.565559,41.5716304 340.344173,41.9159817 C340.203545,42.1367553 339.964058,42.2561674 339.720395,42.2561674 M289.985172,58.330986 C289.894669,58.330986 289.802773,58.3143239 289.713661,58.2782225 C289.332154,58.1282631 289.146969,57.6992125 289.297345,57.3187598 C290.479461,54.3417873 292.07511,51.5411559 294.041127,48.993234 C294.29036,48.6697104 294.755409,48.6086158 295.07983,48.8585482 C295.405643,49.1070921 295.465515,49.5722441 295.216282,49.8943792 C293.333806,52.333997 291.806384,55.0152162 290.675784,57.8644456 C290.560218,58.1546448 290.280353,58.330986 289.985172,58.330986 M354.258061,62.0063808 C353.930856,62.0063808 353.631498,61.7897727 353.543779,61.4593065 C352.748739,58.4976076 351.538776,55.6608749 349.950089,53.0240882 C349.739842,52.6755713 349.854016,52.2215275 350.203499,52.0104734 C350.555767,51.7994194 351.009677,51.9132775 351.221317,52.2631829 C352.881014,55.0166048 354.143888,57.9824692 354.975129,61.0774653 C355.079556,61.4704146 354.845639,61.8758605 354.4516,61.9813875 C354.386159,61.9994382 354.32211,62.0063808 354.258061,62.0063808 M289.836189,82.8326919 C289.538224,82.8326919 289.256966,82.6521851 289.144185,82.3564318 C287.99827,79.3641856 287.278418,76.224757 287.00273,73.0214568 C286.967921,72.6146224 287.270063,72.2577745 287.678026,72.2230617 C288.077634,72.1841833 288.445218,72.4896562 288.480027,72.8964906 C288.741792,75.9609395 289.432404,78.9656823 290.529586,81.8287967 C290.674392,82.2106379 290.483638,82.6383 290.100738,82.7827054 C290.013019,82.8160297 289.925301,82.8326919 289.836189,82.8326919 M306.32038,101 C306.208991,101 306.09621,100.976395 305.988998,100.922243 C303.117944,99.485132 300.459922,97.6536829 298.087335,95.4806596 C297.786585,95.2043454 297.765699,94.737805 298.042779,94.4364976 C298.321252,94.1365787 298.789086,94.1171395 299.089837,94.3920652 C301.360782,96.4734466 303.906022,98.2257504 306.654547,99.6031556 C307.019347,99.7836623 307.166937,100.229375 306.983145,100.593166 C306.853655,100.852818 306.591891,101 306.32038,101" id="Fill-20" fill="#00B388"></path>
                        <path d="M352.834732,81 C352.743725,81 352.65115,80.9869573 352.560143,80.9565244 C352.12394,80.8174024 351.894855,80.3768495 352.047055,79.9754246 C352.578972,78.5595687 353.018314,77.0929913 353.34782,75.6162695 C353.440396,75.1989036 353.87503,74.9293548 354.3332,75.016306 C354.785094,75.1018081 355.075374,75.5104789 354.982798,75.9278448 C354.637601,77.46978 354.181,79.00302 353.622409,80.4826402 C353.503159,80.8000122 353.179929,81 352.834732,81" id="Fill-22" fill="#00B388"></path>
                        <path d="M355,97 C355,103.627315 349.627315,109 343,109 C336.372685,109 331,103.627315 331,97 C331,90.3726849 336.372685,85 343,85 C349.627315,85 355,90.3726849 355,97" id="Fill-24" fill="#BAE1FF"></path>
                        <polyline id="Fill-26" fill="#FFFFFF" points="321 50 321 70.1237368 329 79"></polyline>
                        <path d="M329.280595,80 C329.096687,80 328.912779,79.925868 328.772143,79.777604 L320.209601,70.752035 C320.075727,70.6108991 320,70.4170154 320,70.2160037 L320,49.7584272 C320,49.3392964 320.321839,49 320.719405,49 C321.116971,49 321.43881,49.3392964 321.43881,49.7584272 L321.43881,69.9023684 L329.789047,78.7055415 C330.070318,79.0006438 330.070318,79.4810761 329.789047,79.777604 C329.648411,79.925868 329.464503,80 329.280595,80" id="Fill-28" fill="#00B388"></path>
                        <path d="M325,69.0007109 C325,71.2100586 323.208637,73 321.000711,73 C318.789941,73 317,71.2100586 317,69.0007109 C317,66.7913631 318.789941,65 321.000711,65 C323.208637,65 325,66.7913631 325,69.0007109" id="Fill-30" fill="#00B388"></path>
                        <path d="M342.850053,101 L342.850053,101 C342.661953,101 342.481857,100.923795 342.348453,100.787714 L339.208111,97.5816485 C338.93063,97.2986003 338.93063,96.8400078 339.208111,96.5569596 C339.485592,96.2752722 339.933831,96.2739114 340.211313,96.5569596 L342.850053,99.2513608 L347.788687,94.2122862 C348.066169,93.9292379 348.515742,93.9292379 348.791889,94.2122862 C349.06937,94.4953344 349.06937,94.9539269 348.791889,95.2369751 L343.351654,100.787714 C343.219584,100.923795 343.039488,101 342.850053,101" id="Fill-32" fill="#00B388"></path>
                        <path d="M289.328895,174.073039 L268.130231,151.624683 C267.949811,151.433717 267.958203,151.133226 268.147014,150.953493 L300.317739,120.332909 C305.168103,115.71602 312.826867,115.921028 317.424084,120.790666 L341.87031,146.676413 C342.049332,146.867379 342.042339,147.166465 341.853527,147.347602 L301.243616,186" id="Fill-34" fill="#FFFFFF"></path>
                        <path d="M317.380818,120.989281 L341.66934,146.696607 C342.127902,147.181861 342.107058,147.950181 341.622094,148.410336 L301.27555,186.79563 C300.979569,187.078695 300.51128,187.066145 300.230584,186.767742 C299.949888,186.470732 299.962394,186.000817 300.258376,185.719146 L340.408988,147.519308 L316.30806,122.009988 C312.026754,117.479553 304.871791,117.288519 300.357036,121.584693 L268.589778,151.805722 L289.465484,173.901529 C289.74618,174.198538 289.735063,174.668454 289.437693,174.950124 C289.141711,175.231795 288.673422,175.22064 288.392726,174.922236 L267.330816,152.628423 C266.872254,152.144563 266.893097,151.376244 267.376672,150.916089 L299.338472,120.506815 C304.445189,115.648694 312.539511,115.864827 317.380818,120.989281 L317.380818,120.989281 Z" id="Fill-36" fill="#00B388"></path>
                        <path d="M284,133.047606 L284,133.047606 L308.215482,110 L345,148.950988 L320.784518,172 L321.212912,139.030876 C321.252111,136.039944 318.872143,133.581701 315.892982,133.536725 L284,133.047606 Z" id="Fill-38" fill="#BAE1FF"></path>
                        <path d="M320.348674,135.44084 C321.406815,136.58005 322.041142,138.131708 321.997924,139.8199 L321.228367,169.262998 C321.217214,169.679713 320.875653,170.011093 320.465781,170 C320.057302,169.988338 319.733865,169.63989 319.745018,169.223176 L320.514575,139.780077 C320.581493,137.234278 318.604624,135.109459 316.10914,135.041192 L296.722437,134.513543 C296.312564,134.502165 295.989127,134.15514 296.00028,133.737003 C296.011433,133.318866 296.352994,132.988908 296.762866,133 L316.14957,133.526512 C317.80579,133.573446 319.290533,134.300208 320.348674,135.44084" id="Fill-40" fill="#00B388"></path>
                        <path d="M290.055835,145.565466 C295.266084,140.625677 303.494516,140.846458 308.434139,146.055456 C313.373762,151.26588 313.154413,159.493163 307.944165,164.432952 C302.733916,169.374165 294.506909,169.154809 289.565861,163.942962 C284.626238,158.733963 284.845587,150.505255 290.055835,145.565466" id="Fill-42" fill="#00B388"></path>
                        <path d="M297.775641,159.337292 C297.113389,159.953248 296.145169,159.958581 295.126634,159.094644 L297.808278,156.602825 C298.527643,158.101383 298.417495,158.742669 297.775641,159.337292 L297.775641,159.337292 Z M298.779217,153.47372 C298.038094,151.993828 298.130564,151.292545 298.802335,150.665924 C299.52986,149.991307 300.517118,150.068635 301.535653,150.91124 L298.779217,153.47372 Z M305.976955,154.896283 C305.758018,153.389726 305.170558,151.985828 304.214577,150.765917 L305.1556,149.892647 C305.518682,149.555339 305.522762,148.994046 305.178717,148.638072 C304.834673,148.282098 304.273051,148.267432 303.909968,148.604741 L303.001582,149.44868 C300.997149,147.732805 298.66091,147.476823 296.993722,149.027377 C295.370049,150.535267 295.383648,152.353801 296.984202,155.141598 L294.078182,157.842735 C293.70966,157.230779 293.458086,156.509499 293.262266,155.698891 C293.205152,155.472241 293.116761,155.274922 292.975336,155.129599 C292.529302,154.668299 291.811296,154.638968 291.342144,155.07627 C290.977702,155.413578 290.957304,155.830881 291.040255,156.190855 C291.260553,157.278776 291.691628,158.290702 292.435472,159.269297 L292.105026,159.578608 C291.741943,159.915917 291.726985,160.466544 292.071029,160.821184 C292.415074,161.178492 292.987575,161.20249 293.350657,160.865181 L293.670224,160.567869 C295.613464,162.282411 297.949703,162.497062 299.563856,160.997172 C301.2732,159.409287 301.133135,157.629417 299.614171,154.924281 L302.593624,152.153816 C303.235478,153.109746 303.541446,154.119006 303.705989,155.297587 C303.731827,155.532236 303.839256,155.769552 304.011958,155.948206 C304.457992,156.409506 305.165119,156.426838 305.63563,155.989536 C305.956557,155.672226 306.049028,155.30692 305.976955,154.896283 L305.976955,154.896283 Z" id="Fill-44" fill="#FFFFFF"></path>
                        <path d="M206.370485,237.106355 L223.308029,243.093451 C230.08028,245.48662 233.642146,252.948576 231.260649,259.757977 L216.899715,300.832825 L209.247377,305 L205.873705,296.935577 L197.79101,300.951092 L194.093532,292.772577 L186.118772,296.825659 L182.637165,288.722277 L174.662405,292.776751 L172,284.962776 L190.516445,232" id="Fill-46" fill="#BAE1FF"></path>
                        <path d="M195.371187,243.106355 L212.309077,249.093451 C219.081466,251.48662 222.642021,258.948576 220.260476,265.757977 L205.900632,306.832825 L198.248137,311 L194.874397,302.935577 L186.791536,306.951092 L183.0926,298.771185 L175.11906,302.825659 L171.637383,294.722277 L163.662459,298.775359 L161,290.962776 L179.515439,238" id="Fill-48" fill="#FFFFFF"></path>
                        <path d="M198.064601,311.957853 L198.064601,311.957853 C197.866411,311.887799 197.707301,311.737883 197.626351,311.543133 L194.530687,304.153829 L187.08602,307.845679 C186.904579,307.935348 186.665914,307.931145 186.506804,307.879305 C186.316989,307.812053 186.163462,307.670544 186.081115,307.485601 L182.671419,299.957591 L175.318868,303.68867 C175.138822,303.779741 174.928072,303.793751 174.736861,303.725098 C174.735465,303.725098 174.732673,303.723697 174.729882,303.723697 C174.538671,303.652242 174.382353,303.50653 174.301402,303.318785 L171.103852,295.886048 L163.763862,299.611523 C163.572651,299.708198 163.343756,299.722209 163.148358,299.635342 C162.950169,299.55548 162.795246,299.390153 162.725461,299.186996 L160.040133,291.318523 C159.985701,291.1602 159.987096,290.987867 160.041529,290.829545 L178.718794,237.498783 C178.854177,237.110683 179.27847,236.906125 179.665079,237.04203 C180.051689,237.179336 180.255461,237.605265 180.120078,237.993364 L161.529346,291.08174 L163.854583,297.893798 L171.137349,294.197745 C171.317394,294.106675 171.526749,294.092664 171.71796,294.159916 C171.719356,294.161317 171.722147,294.161317 171.724939,294.162718 C171.917545,294.232772 172.072468,294.378484 172.153419,294.56763 L175.352365,302.000367 L182.692354,298.274892 C183.052445,298.092751 183.535357,298.263683 183.702841,298.632168 L187.115329,306.167183 L194.579536,302.465526 C194.762373,302.374456 194.985685,302.382862 195.168522,302.434702 C195.359733,302.507559 195.514656,302.654672 195.594211,302.845219 L198.677313,310.206501 L205.42413,306.539871 L219.812408,265.451758 C222.074838,258.991371 218.680494,251.890691 212.246315,249.619538 L195.162939,243.590685 C194.77633,243.45478 194.573953,243.028851 194.709336,242.63935 C194.844719,242.252652 195.269012,242.048094 195.655621,242.183999 L212.738997,248.212852 C219.946395,250.755815 223.748283,258.711155 221.215087,265.944938 L206.730506,307.306262 C206.669095,307.481398 206.546273,307.625709 206.384372,307.715378 L198.664752,311.910216 C198.480519,312.009693 198.26279,312.027907 198.064601,311.957853 L198.064601,311.957853 Z" id="Fill-50" fill="#00B388"></path>
                        <path d="M194.799985,258.970542 C195.119844,258.11569 196.024915,257.673431 197.404755,257.988945 L196.11241,261.446109 C194.701015,260.422713 194.491601,259.795731 194.799985,258.970542 L194.799985,258.970542 Z M196.739219,264.701021 C198.160654,265.696102 198.418836,266.370276 198.094674,267.238612 C197.744694,268.174366 196.779381,268.550555 195.409582,268.253918 L196.739219,264.701021 Z M189.283496,266.679048 C190.228729,267.93436 191.469437,268.932137 192.965459,269.596873 L192.512206,270.807689 C192.337216,271.276914 192.608307,271.783893 193.106024,271.948392 C193.605176,272.11289 194.140187,271.871536 194.315177,271.403659 L194.752652,270.234641 C197.476472,270.871062 199.792938,270.043176 200.597605,267.893909 C201.379323,265.801273 200.475686,264.17112 197.604129,262.387256 L199.004049,258.642894 C199.650938,259.025824 200.240454,259.561119 200.824232,260.202932 C200.987747,260.380914 201.16704,260.517097 201.372152,260.584515 C202.016172,260.797554 202.704658,260.499569 202.931284,259.894161 C203.106274,259.424935 202.921244,259.039308 202.66593,258.753458 C201.924374,257.874335 201.023606,257.158362 199.844575,256.614978 L200.003787,256.187552 C200.178777,255.719675 199.923464,255.216741 199.425746,255.052243 C198.926594,254.887744 198.378675,255.123705 198.203685,255.591582 L198.048775,256.005525 C195.383763,255.342138 193.084509,256.206429 192.307094,258.285581 C191.482346,260.488782 192.487822,262.028595 195.241763,263.773358 L193.805984,267.614801 C192.734529,267.04445 191.952811,266.275892 191.218427,265.290249 C191.079296,265.089345 190.861275,264.924847 190.613134,264.842598 C189.967679,264.629559 189.294971,264.932937 189.068345,265.539694 C188.923476,265.969817 189.015274,266.341961 189.283496,266.679048 L189.283496,266.679048 Z" id="Fill-52" fill="#00B388"></path>
                        <path d="M203.004449,284.95905 L177.499189,276.38813 C177.110236,276.257922 176.905227,275.849847 177.042836,275.478016 C177.17904,275.104842 177.605906,274.910201 177.99486,275.040409 L203.500119,283.611328 C203.889073,283.742879 204.094081,284.149612 203.957877,284.522785 C203.820269,284.894617 203.393403,285.090601 203.004449,284.95905" id="Fill-54" fill="#00B388"></path>
                        <path d="M199.00801,288.960726 L178.499136,282.331837 C178.109904,282.20567 177.905488,281.815584 178.042699,281.457683 C178.17991,281.10107 178.604145,280.913108 178.993377,281.039274 L199.502251,287.668163 C199.890082,287.79433 200.094499,288.184416 199.957288,288.542317 C199.821477,288.89893 199.395842,289.086892 199.00801,288.960726" id="Fill-56" fill="#00B388"></path>
                        <path d="M48.818573,214 L1.47171018,214 C1.21073443,214 1,214.211547 1,214.473529 L1,258.878779 C1,265.57403 6.40652439,271 13.0746642,271 L48.5282898,271 C48.7892656,271 49,270.788453 49,270.527872 L49,262.664209" id="Fill-58" fill="#FFFFFF"></path>
                        <g id="Group-62" transform="translate(0.000000, 212.000000)">
                            <mask id="mask-4" fill="white">
                                <use xlink:href="#path-3"></use>
                            </mask>
                            <g id="Clip-61"></g>
                            <path d="M48.04,58.5838502 L12.7566667,58.5838502 C5.72333333,58.5838502 -0.000277777778,52.8476943 -0.000277777778,45.7972346 L-0.000277777778,1.66781741 C-0.000277777778,1.00091966 0.541388889,0.456541758 1.20805556,0.456541758 L48.3275,0.456541758 C48.7358333,0.456541758 49.0663889,0.787902223 49.0663889,1.19722986 C49.0663889,1.60794976 48.7358333,1.93791795 48.3275,1.93791795 L1.47888889,1.93791795 L1.47888889,45.7972346 C1.47888889,52.0318236 6.53722222,57.102474 12.7566667,57.102474 L47.7705556,57.102474 L47.7705556,49.5605428 C47.7705556,49.1512152 48.0997222,48.8184624 48.5080556,48.8184624 C48.9177778,48.8184624 49.2483333,49.1512152 49.2483333,49.5605428 L49.2483333,57.3739669 C49.2483333,58.0408646 48.7052778,58.5838502 48.04,58.5838502" id="Fill-60" fill="#00B388" mask="url(#mask-4)"></path>
                        </g>
                        <mask id="mask-6" fill="white">
                            <use xlink:href="#path-5"></use>
                        </mask>
                        <g id="Clip-64"></g>
                        <polygon id="Fill-63" fill="#FFFFFF" mask="url(#mask-6)" points="8 249 43 249 43 223 8 223"></polygon>
                        <path d="M8.51040668,248.50734 L42.4910115,248.50734 L42.4910115,223.494063 L8.51040668,223.494063 L8.51040668,248.50734 Z M43.2455058,250 L7.75591245,250 C7.33895512,250 7,249.666116 7,249.25367 L7,222.747733 C7,222.335287 7.33895512,222 7.75591245,222 L43.2455058,222 C43.6638813,222 44,222.335287 44,222.747733 L44,249.25367 C44,249.666116 43.6638813,250 43.2455058,250 L43.2455058,250 Z" id="Fill-65" fill="#00B388" mask="url(#mask-6)"></path>
                        <line x1="14" y1="224" x2="14" y2="250" id="Fill-66" fill="#FFFFFF" mask="url(#mask-6)"></line>
                        <path d="M14,250 C13.4473684,250 13,249.671942 13,249.266694 L13,223.733306 C13,223.328058 13.4473684,223 14,223 C14.5526316,223 15,223.328058 15,223.733306 L15,249.266694 C15,249.671942 14.5526316,250 14,250" id="Fill-67" fill="#00B388" mask="url(#mask-6)"></path>
                        <line x1="31" y1="224" x2="31" y2="250" id="Fill-68" fill="#FFFFFF" mask="url(#mask-6)"></line>
                        <path d="M31,250 C30.4473684,250 30,249.671942 30,249.266694 L30,223.733306 C30,223.328058 30.4473684,223 31,223 C31.5526316,223 32,223.328058 32,223.733306 L32,249.266694 C32,249.671942 31.5526316,250 31,250" id="Fill-69" fill="#00B388" mask="url(#mask-6)"></path>
                        <line x1="43" y1="227" x2="8" y2="227" id="Fill-70" fill="#FFFFFF" mask="url(#mask-6)"></line>
                        <path d="M43.2560308,228 L8.74396923,228 C8.33282834,228 8,227.552632 8,227 C8,226.447368 8.33282834,226 8.74396923,226 L43.2560308,226 C43.6671717,226 44,226.447368 44,227 C44,227.552632 43.6671717,228 43.2560308,228" id="Fill-71" fill="#00B388" mask="url(#mask-6)"></path>
                        <polyline id="Fill-72" fill="#FFFFFF" mask="url(#mask-6)" points="32.9094737 258 30 266 38 263.250814"></polyline>
                        <path d="M29.7081168,266 C29.5178339,266 29.3342043,265.920802 29.1984781,265.777425 C29.0095259,265.575333 28.9496467,265.280387 29.0441228,265.016848 L31.802559,257.471156 C31.9396158,257.095646 32.3481252,256.907209 32.7140538,257.045123 C33.0799824,257.187134 33.2649426,257.606339 33.1292164,257.981849 L30.8923948,264.10197 L37.0679386,261.989559 C37.4431817,261.862568 37.8397153,262.068757 37.9634657,262.448363 C38.0872161,262.8307 37.886288,263.240347 37.5163675,263.367337 L29.9316659,265.963132 C29.8584802,265.987711 29.7826332,266 29.7081168,266" id="Fill-73" fill="#00B388" mask="url(#mask-6)"></path>
                        <polygon id="Fill-74" fill="#BAE1FF" mask="url(#mask-6)" points="37.0255034 263 32 257.974714 58.9744966 231 64 236.025286"></polygon>
                        <path d="M32.8219592,258.104218 L36.8983271,262.179369 L64.6488219,234.427508 C65.7731905,233.303084 65.7731905,231.475364 64.6488219,230.35094 C63.527289,229.229352 61.6982405,229.227934 60.572454,230.35094 L32.8219592,258.104218 Z M36.8983271,264 C36.7054972,264 36.5126673,263.926267 36.3652091,263.78022 L31.2211873,258.637363 C31.0794006,258.495569 31,258.304148 31,258.104218 C31,257.902871 31.0794006,257.712868 31.2211873,257.569656 L59.5062179,229.284651 C61.2190014,227.570365 64.0036924,227.573201 65.7164758,229.284651 C67.4278414,230.996101 67.4278414,233.782347 65.7164758,235.493797 L37.4314451,263.78022 C37.283987,263.926267 37.091157,264 36.8983271,264 L36.8983271,264 Z" id="Fill-75" fill="#00B388" mask="url(#mask-6)"></path>
                        <path d="M66.9642481,109.73426 L74.983439,79.7090041 C75.0516815,79.454852 74.9026622,79.19364 74.6533681,79.1244541 L32.0435826,67.427806 C25.6204307,65.6642722 19.0023003,69.5132658 17.2628127,76.0252095 L8.01664943,110.647796 C7.94840692,110.90336 8.09603357,111.164572 8.34811303,111.233758 L62.1329572,126" id="Fill-76" fill="#FFFFFF" mask="url(#mask-6)"></path>
                        <path d="M32.1671912,66.4481335 L75.0975003,78.0481078 C75.7471941,78.2245439 76.1330814,78.8938809 75.9576781,79.5422136 L67.8764971,109.319308 C67.7698519,109.71699 67.3601098,109.952238 66.9601903,109.844416 C66.5630772,109.736594 66.3273352,109.32771 66.4353836,108.928628 L74.4435968,79.4161878 L31.7770943,67.8862279 C25.7123497,66.2478925 19.4427341,69.8382274 17.8009591,75.8902661 L8.55510027,109.964841 L62.4824948,124.536223 C62.8824143,124.642645 63.1167531,125.051529 63.0087047,125.44921 C62.9006563,125.846891 62.4909141,126.080739 62.0923978,125.974317 L7.90119675,111.33012 C7.25150292,111.155084 6.86701888,110.485747 7.04242219,109.837415 L16.3598456,75.5009865 C18.2163142,68.6563855 25.3082205,64.5955543 32.1671912,66.4481335" id="Fill-77" fill="#00B388" mask="url(#mask-6)"></path>
                        <polygon id="Fill-78" fill="#BAE1FF" mask="url(#mask-6)" points="54.3171368 88 65 90.868122 58.6828632 114 48 111.131878"></polygon>
                        <polygon id="Fill-79" fill="#FFFFFF" mask="url(#mask-6)" points="35.6971549 94 46 96.8835338 42.3028451 111 32 108.116466"></polygon>
                        <path d="M45.4591418,96.2548034 L36.7743206,93.6837483 L33.5400989,106.745106 L42.2249201,109.31474 L45.4591418,96.2548034 Z M36.4688375,92.0265618 L46.488685,94.9927266 C46.8578646,95.1021634 47.0749527,95.5171707 46.9761581,95.9208079 L43.3792564,110.440376 C43.2791619,110.845435 42.8995829,111.082785 42.5317032,110.973348 L32.5105557,108.007183 C32.1413761,107.897746 31.924288,107.482739 32.0243825,107.079102 L35.6199843,92.5581122 C35.7200787,92.1558962 36.0996578,91.9171249 36.4688375,92.0265618 L36.4688375,92.0265618 Z" id="Fill-80" fill="#00B388" mask="url(#mask-6)"></path>
                        <polygon id="Fill-81" fill="#FFFFFF" mask="url(#mask-6)" points="20.7472732 85 31 87.8703255 26.2527268 106 16 103.129675"></polygon>
                        <path d="M30.3681625,88.2163422 L21.1646381,85.6690828 L16.631744,102.783174 L25.833891,105.331842 L30.3681625,88.2163422 Z M20.8409584,84.0258259 L31.4590322,86.9659462 C31.8502026,87.0729621 32.0802219,87.4841284 31.9741651,87.8854379 L27.0583647,106.445651 C26.9523079,106.845553 26.5501186,107.082114 26.1589481,106.97369 L15.5408743,104.034978 C15.1510812,103.926554 14.9196846,103.515388 15.0257414,103.115486 L19.9415418,84.5538648 C20.0475986,84.1539634 20.4497879,83.9188101 20.8409584,84.0258259 L20.8409584,84.0258259 Z" id="Fill-82" fill="#00B388" mask="url(#mask-6)"></path>
                        <polygon id="Fill-83" fill="#00B388" mask="url(#mask-6)" points="49.9776702 105 61 107.900625 59.0223298 115 48 112.099375"></polygon>
                        <polygon id="Fill-84" fill="#00B388" mask="url(#mask-6)" points="32.1779572 103 43 105.817271 41.8220428 110 31 107.185428"></polygon>
                        <polygon id="Fill-85" fill="#00B388" mask="url(#mask-6)" points="17.4783301 99 28 101.742444 26.5216699 107 16 104.257556"></polygon>
                        <path d="M120.256774,142.079663 L150.266999,134.016548 C150.521143,133.948358 150.782347,134.097263 150.851531,134.346365 L161.402762,172.499342 C163.849608,181.347337 158.556344,190.473658 149.579397,192.886748 L119.440688,200.983262 C119.186543,201.051452 118.925339,200.90533 118.856155,200.653445 L104,146.933674" id="Fill-86" fill="#BAE1FF" mask="url(#mask-6)"></path>
                        <polygon id="Fill-87" fill="#00B388" mask="url(#mask-6)" points="123.25488 154 127.577019 148.929872 134 151.045474 130.74512 139 120 141.954526"></polygon>
                        <path d="M149.460083,174.364604 L123.923929,180.974963 C123.534893,181.076802 123.13211,180.858763 123.02626,180.487967 C122.919034,180.11717 123.149981,179.735929 123.540392,179.635396 L149.075171,173.025037 C149.465582,172.923198 149.86699,173.141237 149.974215,173.512033 C150.080066,173.88283 149.850494,174.264071 149.460083,174.364604" id="Fill-88" fill="#00B388" mask="url(#mask-6)"></path>
                        <path d="M146.437014,182.422102 L124.964345,187.974487 C124.557253,188.079198 124.13726,187.852098 124.026886,187.467252 C123.916513,187.081047 124.155894,186.683962 124.562986,186.577892 L146.035655,181.025507 C146.442747,180.920796 146.861307,181.147896 146.973114,181.534102 C147.083487,181.918947 146.844106,182.316032 146.437014,182.422102" id="Fill-89" fill="#00B388" mask="url(#mask-6)"></path>
                        <path d="M109.241911,134.078469 L139.224699,126.016649 C139.478611,125.948459 139.740987,126.095973 139.808697,126.345078 L151.567649,168.903079 C153.339391,175.318578 149.505318,181.938649 143.002347,183.685168 L108.426571,192.982771 C108.17407,193.052354 107.911694,192.904839 107.842573,192.654342 L93,138.932538" id="Fill-90" fill="#FFFFFF" mask="url(#mask-6)"></path>
                        <path d="M144.529138,184.588836 L110.239328,193.956924 C109.59301,194.133601 108.92291,193.750801 108.746641,193.101583 L94.0268263,138.972516 C93.9177078,138.575694 94.1513334,138.164849 94.5486369,138.05688 C94.9459404,137.948911 95.3544356,138.183078 95.4621552,138.581302 L110.110624,192.445354 L144.137431,183.148778 C150.180921,181.49839 153.756652,175.227759 152.110081,169.170262 L140.521129,126.554646 L111.047924,134.60607 C110.650621,134.714039 110.242125,134.479872 110.134406,134.08305 C110.025287,133.684825 110.260312,133.275383 110.656216,133.167414 L140.391026,125.043076 C141.038743,124.866399 141.708843,125.249199 141.885111,125.898417 L153.546809,168.777646 C155.408819,175.628788 151.363038,182.721108 144.529138,184.588836 L144.529138,184.588836 Z" id="Fill-91" fill="#00B388" mask="url(#mask-6)"></path>
                        <path d="M138.460073,169.36546 L112.92347,175.974962 C112.534428,176.076807 112.133013,175.858754 112.025785,175.487932 C111.919933,175.117111 112.149509,174.735843 112.539927,174.635304 L138.075155,168.024497 C138.465572,167.923957 138.866987,168.142011 138.974215,168.511526 C139.080067,168.882348 138.850491,169.263615 138.460073,169.36546" id="Fill-92" fill="#00B388" mask="url(#mask-6)"></path>
                        <path d="M136.437011,175.421198 L114.964252,180.974495 C114.557158,181.079197 114.138597,180.852116 114.026789,180.465941 C113.916415,180.081127 114.157231,179.682714 114.562892,179.578012 L136.035651,174.026075 C136.442745,173.920013 136.861306,174.147094 136.973113,174.533269 C137.083487,174.919443 136.844105,175.316496 136.437011,175.421198" id="Fill-93" fill="#00B388" mask="url(#mask-6)"></path>
                        <line x1="106" y1="151" x2="114" y2="148" id="Fill-94" fill="#FFFFFF" mask="url(#mask-6)"></line>
                        <path d="M113.493207,150.172187 L105.867252,151.978959 C105.502083,152.065316 105.124011,151.878022 105.024655,151.560631 C104.924007,151.242119 105.140786,150.914635 105.505954,150.828278 L113.13191,149.021506 C113.498369,148.934028 113.87515,149.121322 113.975797,149.439834 C114.075154,149.758346 113.859666,150.08583 113.493207,150.172187" id="Fill-95" fill="#00B388" mask="url(#mask-6)"></path>
                        <line x1="109" y1="150" x2="112" y2="158" id="Fill-96" fill="#FFFFFF" mask="url(#mask-6)"></line>
                        <path d="M111.565617,158.976256 C111.252624,159.073731 110.928571,158.862324 110.84341,158.502806 L109.02075,150.850388 C108.935589,150.49087 109.120288,150.121225 109.433281,150.02375 C109.747381,149.926275 110.070328,150.137682 110.156595,150.495934 L111.979255,158.149617 C112.064416,158.507869 111.879717,158.878781 111.565617,158.976256" id="Fill-97" fill="#00B388" mask="url(#mask-6)"></path>
                        <line x1="135" y1="144" x2="129" y2="154" id="Fill-98" fill="#FFFFFF" mask="url(#mask-6)"></line>
                        <path d="M129.00913,154.974622 C128.815372,155.022784 128.600586,155.003519 128.409833,154.907195 C128.025321,154.711796 127.885636,154.26458 128.101923,153.912312 L134.501935,143.375901 C134.71672,143.023632 135.20487,142.89566 135.589381,143.092435 C135.975394,143.28921 136.113578,143.73505 135.898792,144.088695 L129.497279,154.623729 C129.389135,154.803992 129.208895,154.925084 129.00913,154.974622" id="Fill-99" fill="#00B388" mask="url(#mask-6)"></path>
                        <line x1="138" y1="152" x2="128" y2="146" id="Fill-100" fill="#FFFFFF" mask="url(#mask-6)"></line>
                        <path d="M138.460305,152.971888 C138.28278,153.024432 138.085989,153.004916 137.911216,152.899829 L127.375321,146.498507 C127.023023,146.282327 126.896417,145.795923 127.091832,145.410102 C127.289999,145.025782 127.735875,144.886166 128.088173,145.100845 L138.624068,151.503668 C138.976366,151.718346 139.104349,152.204751 138.907558,152.590571 C138.807098,152.785734 138.643335,152.917844 138.460305,152.971888" id="Fill-101" fill="#00B388" mask="url(#mask-6)"></path>
                        <polyline id="Fill-102" fill="#FFFFFF" mask="url(#mask-6)" points="117 157 118.771313 148 125 154.883975"></polyline>
                        <path d="M116.866321,157.974467 C116.768273,158.003648 116.663775,158.007816 116.557987,157.986973 C116.185149,157.909159 115.94132,157.522866 116.012276,157.122679 L117.701014,147.601546 C117.750038,147.323638 117.940972,147.101311 118.195121,147.026276 C118.447981,146.951241 118.717611,147.040172 118.890484,147.251382 L124.828805,154.532575 C125.079084,154.839663 125.051992,155.307939 124.76688,155.57612 C124.481768,155.84708 124.048295,155.815121 123.798016,155.510812 L118.785986,149.364873 L117.360428,157.399197 C117.310114,157.685443 117.111439,157.902211 116.866321,157.974467" id="Fill-103" fill="#00B388" mask="url(#mask-6)"></path>
                        <line x1="123" y1="153" x2="118" y2="155" id="Fill-104" fill="#FFFFFF" mask="url(#mask-6)"></line>
                        <path d="M123.460549,154.45142 L117.9254,155.973961 C117.534748,156.08083 117.133092,155.849049 117.025801,155.456269 C116.919885,155.060714 117.149599,154.655443 117.54025,154.548574 L123.075399,153.026033 C123.466051,152.919163 123.867707,153.150945 123.973623,153.545112 C124.080914,153.937892 123.8512,154.344551 123.460549,154.45142" id="Fill-105" fill="#00B388" mask="url(#mask-6)"></path>
                        <g id="Group-108" mask="url(#mask-6)">
                            <g transform="translate(35.000000, 72.000000)">
                                <path d="M47.5123898,0.0585 C30.5647244,6.30685714 15.3359825,16.5123214 6.51654982,32.9341071 C-2.58494836,49.8796071 -1.06849745,61.3400357 6.50398255,68.4408214 C14.1630371,75.621 28.0177571,78.3384643 43.3456407,77.7576429" id="Fill-106" stroke="none" fill="#FFFFFF" fill-rule="evenodd"></path>
                                <path d="M47.5123898,0.0585 C30.5647244,6.30685714 15.3359825,16.5123214 6.51654982,32.9341071 C-2.58494836,49.8796071 -1.06849745,61.3400357 6.50398255,68.4408214 C14.1630371,75.621 28.0177571,78.3384643 43.3456407,77.7576429" id="Stroke-107" stroke="#00B388" stroke-width="1" fill="none"></path>
                            </g>
                        </g>
                        <path d="M146,125 C139.995238,129.505547 134.548172,133.230584 129.768929,135.85248 C117.89071,142.371294 102.239925,147.098033 87,149 L95.4910979,128.87015 L146,125 Z" id="Fill-109" fill="#FFFFFF" mask="url(#mask-6)"></path>
                        <line x1="195" y1="99" x2="308" y2="299" id="Stroke-110" stroke="#00B388" mask="url(#mask-6)"></line>
                        <path d="M164,116 L164,116 C150.744946,116 140,105.244455 140,91.979471 L140,82.0191216 C140,68.7541373 150.744946,58 164,58 C177.255054,58 188,68.7541373 188,82.0191216 L188,91.979471 C188,105.244455 177.255054,116 164,116" id="Fill-111" fill="#BAE1FF" mask="url(#mask-6)"></path>
                        <path d="M170,110 L170,110 C156.744946,110 146,99.2458627 146,85.9808784 L146,76.020529 C146,62.7541373 156.744946,52 170,52 C183.255054,52 194,62.7541373 194,76.020529 L194,85.9808784 C194,99.2458627 183.255054,110 170,110" id="Fill-112" fill="#FFFFFF" mask="url(#mask-6)"></path>
                        <path d="M161.474061,53.4849789 C153.741804,53.4849789 147.450992,59.9231442 147.450992,67.8365189 L147.450992,95.1634811 C147.450992,103.076856 153.741804,109.515021 161.474061,109.515021 L178.525939,109.515021 C186.258196,109.515021 192.549008,103.076856 192.549008,95.1634811 L192.549008,67.8365189 C192.549008,59.9231442 186.258196,53.4849789 178.525939,53.4849789 L161.474061,53.4849789 Z M178.525939,111 L161.474061,111 C152.941303,111 146,103.896106 146,95.1634811 L146,67.8365189 C146,59.1038936 152.941303,52 161.474061,52 L178.525939,52 C187.058697,52 194,59.1038936 194,67.8365189 L194,95.1634811 C194,103.896106 187.058697,111 178.525939,111 L178.525939,111 Z" id="Fill-113" fill="#00B388" mask="url(#mask-6)"></path>
                        <polyline id="Fill-114" fill="#FFFFFF" mask="url(#mask-6)" points="161 74 155.927861 80 153 76.5352941"></polyline>
                        <path d="M155.850053,81 L155.850053,81 C155.660619,81 155.481857,80.9237966 155.348453,80.787719 L152.208111,77.5817317 C151.93063,77.2986904 151.93063,76.840109 152.208111,76.5570677 C152.485592,76.2753872 152.933831,76.2740264 153.211313,76.5570677 L155.850053,79.2514034 L160.788687,74.2124514 C161.064835,73.9294101 161.514408,73.9294101 161.791889,74.2110906 C162.06937,74.4941319 162.06937,74.9527133 161.791889,75.2357546 L156.351654,80.787719 C156.21825,80.9237966 156.038154,81 155.850053,81" id="Fill-115" fill="#00B388" mask="url(#mask-6)"></path>
                        <line x1="168" y1="76" x2="188" y2="76" id="Fill-116" fill="#FFFFFF" mask="url(#mask-6)"></line>
                        <path d="M188.26116,77 L168.73884,77 C168.330534,77 168,76.5507519 168,75.9981203 C168,75.4473684 168.330534,75 168.73884,75 L188.26116,75 C188.669466,75 189,75.4473684 189,75.9981203 C189,76.5507519 188.669466,77 188.26116,77" id="Fill-117" fill="#00B388" mask="url(#mask-6)"></path>
                        <polyline id="Fill-118" fill="#FFFFFF" mask="url(#mask-6)" points="161 89 155.927861 95 153 91.5346729"></polyline>
                        <path d="M155.850053,94 L155.850053,94 C155.660619,94 155.481857,93.9237947 155.348453,93.7890747 L152.208111,90.5816485 C151.93063,90.2999611 151.93063,89.8400078 152.208111,89.5583204 C152.485592,89.2752722 152.933831,89.2752722 153.211313,89.5583204 L155.850053,92.2513608 L160.788687,87.2122862 C161.064835,86.9292379 161.514408,86.9292379 161.791889,87.2122862 C162.06937,87.4953344 162.06937,87.9539269 161.791889,88.2369751 L156.351654,93.7890747 C156.21825,93.9237947 156.038154,94 155.850053,94" id="Fill-119" fill="#00B388" mask="url(#mask-6)"></path>
                        <line x1="168" y1="92" x2="181" y2="92" id="Fill-120" fill="#FFFFFF" mask="url(#mask-6)"></line>
                        <path d="M180.263886,93 L167.736114,93 C167.329314,93 167,92.5526316 167,92 C167,91.4473684 167.329314,91 167.736114,91 L180.263886,91 C180.670686,91 181,91.4473684 181,92 C181,92.5526316 180.670686,93 180.263886,93" id="Fill-121" fill="#00B388" mask="url(#mask-6)"></path>
                        <polygon id="Fill-122" fill="#00B388" mask="url(#mask-6)" points="194 68 147 68 147.832361 63 192.63166 63"></polygon>
                        <path d="M144,19.5110719 C144.964091,17.5652735 147.758131,17.4799556 148.842909,19.3638297 L178,70" id="Stroke-123" stroke="#00B388" mask="url(#mask-6)"></path>
                        <path d="M385,176.605235 C315.346798,195.902117 266.978064,8.71792008 207,1" id="Fill-124" fill="#FFFFFF" mask="url(#mask-6)"></path>
                        <path d="M169.499986,65.0401425 C169.499986,65.0401425 70.4168675,51.501487 41.2754314,105.656109 C12.132598,159.80934 91.7880924,157.877234 130.643341,136.601806 C169.499986,115.326379 253.041285,20.5557899 321.039366,28.2925619 C389.037448,36.0293339 455.091929,157.877234 385.151644,177.217773 C315.209961,196.558312 266.639504,8.95063184 206.413031,1.21525082 C146.186558,-6.5215212 155.90037,196.558312 188.92761,246.844548 C221.956248,297.130784 328.809578,213.965353 328.809578,213.965353 L49.0456427,213.965353 L143.918791,19.4040374 C144.877317,17.4371558 147.660676,17.3523044 148.740765,19.2551998 L177.77042,70.4414164" id="Stroke-125" stroke="#00B388" mask="url(#mask-6)"></path>
                        <path d="M390.783392,146 L421.529685,146 C421.789266,146 422,146.211547 422,146.473529 L422,190.877378 C422,197.572629 416.594871,203 409.925336,203 L374.47171,203 C374.210734,203 374,202.787052 374,202.526471 L374,146.473529" id="Fill-126" fill="#FFFFFF" mask="url(#mask-6)"></path>
                        <path d="M410.308478,204 L375.200886,204 C374.538947,204 374,203.447449 374,202.769126 L374,146.228048 C374,145.812575 374.328896,145.474826 374.73518,145.474826 C375.141463,145.474826 375.470359,145.812575 375.470359,146.228048 L375.470359,202.49497 L410.308478,202.49497 C416.4967,202.49497 421.529641,197.348192 421.529641,191.02 L421.529641,146.503617 L391.354109,146.503617 C390.947826,146.503617 390.618929,146.167281 390.618929,145.751808 C390.618929,145.336335 390.947826,145 391.354109,145 L421.797733,145 C422.461053,145 423,145.549725 423,146.228048 L423,191.02 C423,198.176311 417.306503,204 410.308478,204 L410.308478,204 Z" id="Fill-127" fill="#00B388" mask="url(#mask-6)"></path>
                        <polygon id="Fill-128" fill="#00B388" mask="url(#mask-6)" points="390 159 395.919051 155.100272 402 159 402 146 390 146"></polygon>
                        <path d="M411.240636,186 L383.759364,186 C383.339716,186 383,185.552211 383,185.000941 C383,184.447789 383.339716,184 383.759364,184 L411.240636,184 C411.660284,184 412,184.447789 412,185.000941 C412,185.552211 411.660284,186 411.240636,186" id="Fill-129" fill="#00B388" mask="url(#mask-6)"></path>
                        <path d="M406.230426,191 L383.77102,191 C383.344283,191 383,190.552632 383,190 C383,189.447368 383.344283,189 383.77102,189 L406.230426,189 C406.655717,189 407,189.447368 407,190 C407,190.552632 406.655717,191 406.230426,191" id="Fill-130" fill="#00B388" mask="url(#mask-6)"></path>
                    </g>
                </g>
            </g>
        </g>
    </g>
</svg>