<?xml version="1.0" encoding="UTF-8"?>
<svg width="512px" height="371px" viewBox="0 0 512 371" version="1.1" xmlns="http://www.w3.org/2000/svg" xmlns:xlink="http://www.w3.org/1999/xlink">
    <!-- Generator: Sketch 61.1 (89650) - https://sketch.com -->
    <title>ill_after_2nd block</title>
    <desc>Created with Sketch.</desc>
    <defs>
        <polygon id="path-1" points="0.764948328 0.625777778 60.3636393 0.625777778 60.3636393 57.8354333 0.764948328 57.8354333"></polygon>
    </defs>
    <g id="Page-1" stroke="none" stroke-width="1" fill="none" fill-rule="evenodd">
        <g id="v17_B" transform="translate(-839.000000, -1165.000000)">
            <g id="02.Make-more,-manage-less" transform="translate(250.000000, 875.000000)">
                <g id="With" transform="translate(590.000000, 196.000000)">
                    <g id="ill_after_2nd-block" transform="translate(0.000000, 94.000000)">
                        <path d="M99.5065051,31 C176.201818,31 229.596349,31.34375 441.108068,31 C532.326818,41.359375 532.326818,153 441.108068,164.5 C338.27213,164.5 54.1080676,164 54.1080676,164 C-17.0325574,176 -19.0325574,284.09975 54.1080676,304 C115.108068,304 338.350255,304 421.545568,304" id="Stroke-124" stroke="#00B487" stroke-linecap="round" stroke-linejoin="round"></path>
                        <g id="Taxes" transform="translate(387.000000, 273.000000)">
                            <text font-family="ProximaNova-Semibold, Proxima Nova" font-size="16" font-weight="500" fill="#4C4D5F">
                                <tspan x="5" y="94">Taxes</tspan>
                            </text>
                            <g id="Group-23" transform="translate(0.000000, -0.000000)">
                                <g>
                                    <path d="M23.748669,8.87787617 L51.548431,8.87787617 C51.7881929,8.87787617 51.9774786,9.06595879 51.9774786,9.30419679 L51.9774786,44.9408391 C51.9774786,53.2039358 45.2389071,59.8984235 36.9229548,59.8984235 L8.99700238,59.8984235 C8.75724048,59.8984235 8.56795476,59.7103409 8.56795476,59.4733567 L8.56795476,9.30419679" id="Fill-88" fill="#A9E2FF"></path>
                                    <polygon id="Fill-89" fill="#00B487" points="22.4239214 20.890212 27.7743976 17.3053571 33.2763024 20.890212 33.2763024 8.91561808 22.4239214 8.91561808"></polygon>
                                    <path d="M41.5668905,44.651568 L17.2752238,44.651568 C16.9092714,44.651568 16.6064143,44.3506358 16.6064143,43.9870094 C16.6064143,43.623383 16.9092714,43.3224508 17.2752238,43.3224508 L41.5668905,43.3224508 C41.9328429,43.3224508 42.2357,43.623383 42.2357,43.9870094 C42.2357,44.3506358 41.9328429,44.651568 41.5668905,44.651568" id="Fill-90" fill="#00B487"></path>
                                    <path d="M36.8601119,49.9058443 L17.262731,49.9058443 C16.8967786,49.9058443 16.5939214,49.6049121 16.5939214,49.2412857 C16.5939214,48.8776593 16.8967786,48.5754732 17.262731,48.5754732 L36.8601119,48.5754732 C37.2260643,48.5754732 37.5289214,48.8776593 37.5289214,49.2412857 C37.5289214,49.6049121 37.2386833,49.9058443 36.8601119,49.9058443" id="Fill-91" fill="#00B487"></path>
                                    <path d="M15.8365262,0.652897493 L43.6362881,0.652897493 C43.87605,0.652897493 44.0653357,0.839726236 44.0653357,1.07921811 L44.0653357,40.8273466 C44.0653357,46.820913 39.1817643,51.6721909 33.1498595,51.6721909 L1.09747857,51.6721909 C0.857716667,51.6721909 0.668430952,51.4853622 0.668430952,51.2471242 L0.668430952,1.07921811" id="Fill-92" fill="#FFFFFF"></path>
                                    <path d="M33.1502381,52.3371257 L1.09785714,52.3371257 C0.492142857,52.3371257 2.75267639e-12,51.8493648 2.75267639e-12,51.2462465 L2.75267639e-12,1.07959428 C2.75267639e-12,0.715967867 0.302857143,0.41378178 0.668809524,0.41378178 C1.0347619,0.41378178 1.33761905,0.715967867 1.33761905,1.07959428 L1.33761905,51.0092624 L33.1502381,51.0092624 C38.8035714,51.0092624 43.3969048,46.4438701 43.3969048,40.8277228 L43.3969048,1.33037112 L15.8369048,1.33037112 C15.4709524,1.33037112 15.1680952,1.02943891 15.1680952,0.664558616 C15.1680952,0.300932203 15.4709524,-1.38095436e-13 15.8369048,-1.38095436e-13 L43.6366667,-1.38095436e-13 C44.242381,-1.38095436e-13 44.7345238,0.490268715 44.7345238,1.09087924 L44.7345238,40.8402617 C44.7345238,47.1711229 39.5354762,52.3371257 33.1502381,52.3371257 L33.1502381,52.3371257 Z" id="Fill-93" fill="#00B487"></path>
                                    <path d="M33.6677452,36.4265893 L9.37607857,36.4265893 C9.01012619,36.4265893 8.70726905,36.1256571 8.70726905,35.7620307 C8.70726905,35.3984043 9.01012619,35.0962182 9.37607857,35.0962182 L33.6677452,35.0962182 C34.0336976,35.0962182 34.3365548,35.3984043 34.3365548,35.7620307 C34.3365548,36.1256571 34.0336976,36.4265893 33.6677452,36.4265893" id="Fill-94" fill="#00B487"></path>
                                    <path d="M28.9608405,41.6796117 L9.36345952,41.6796117 C8.99750714,41.6796117 8.69465,41.3786795 8.69465,41.0150531 C8.69465,40.6514267 8.99750714,40.3504945 9.36345952,40.3504945 L28.9608405,40.3504945 C29.3267929,40.3504945 29.62965,40.6514267 29.62965,41.0150531 C29.62965,41.3786795 29.3267929,41.6796117 28.9608405,41.6796117" id="Fill-95" fill="#00B487"></path>
                                    <path d="M16.0010786,14.3451874 L8.26560238,14.3451874 C7.89965,14.3451874 7.59679286,14.0442552 7.59679286,13.6806287 C7.59679286,13.3170023 7.89965,13.0160701 8.26560238,13.0160701 L16.0010786,13.0160701 C16.367031,13.0160701 16.6698881,13.3170023 16.6698881,13.6806287 C16.6698881,14.0442552 16.367031,14.3451874 16.0010786,14.3451874" id="Fill-96" fill="#00B487"></path>
                                    <path d="M12.1266524,22.1942516 C11.7607,22.1942516 11.4578429,21.8933194 11.4578429,21.5296929 L11.4578429,13.6678391 C11.4578429,13.3042127 11.7607,13.0032805 12.1266524,13.0032805 C12.4926048,13.0032805 12.7954619,13.3042127 12.7954619,13.6678391 L12.7954619,21.5296929 C12.808081,21.9071121 12.5052238,22.1942516 12.1266524,22.1942516" id="Fill-97" fill="#00B487"></path>
                                    <path d="M27.9509381,22.1942516 C27.7868905,22.1942516 27.6102238,22.1315573 27.4840333,22.0074228 C27.2190333,21.7441071 27.2190333,21.3303254 27.4714143,21.0670097 L35.2068905,13.203902 C35.4718905,12.9405863 35.888319,12.9405863 36.153319,13.1913631 C36.418319,13.4546788 36.418319,13.8684606 36.1659381,14.1317763 L28.4304619,21.9936301 C28.2916524,22.1315573 28.1149857,22.1942516 27.9509381,22.1942516" id="Fill-98" fill="#00B487"></path>
                                    <path d="M35.7620024,22.1195201 C35.5979548,22.1195201 35.4212881,22.0568258 35.2950976,21.9314374 L27.3955738,14.2451274 C27.1305738,13.9818117 27.1305738,13.5680299 27.3829548,13.3047143 C27.6479548,13.0413986 28.0643833,13.0413986 28.3293833,13.2921754 L36.2289071,20.9784855 C36.4939071,21.2418011 36.4939071,21.6555829 36.2415262,21.9188986 C36.1153357,22.0430331 35.938669,22.1195201 35.7620024,22.1195201" id="Fill-99" fill="#00B487"></path>
                                    <polyline id="Fill-100" fill="#FFFFFF" points="17.098431 21.5293168 20.9724786 13.6800018 24.8339071 21.5293168"></polyline>
                                    <path d="M17.098431,22.1942516 C16.9974786,22.1942516 16.8965262,22.1691739 16.8081929,22.1315573 C16.4800976,21.9685524 16.3412881,21.5673095 16.5053357,21.2412996 L20.3667643,13.3794458 C20.4803357,13.1537466 20.7074786,13.0032805 20.9724786,13.0032805 C21.2248595,13.0032805 21.4646214,13.1537466 21.5781929,13.3794458 L25.4396214,21.2412996 C25.603669,21.5673095 25.4648595,21.9685524 25.1367643,22.1315573 C24.808669,22.2945623 24.4048595,22.156635 24.2408119,21.8306251 L20.9850976,15.1975778 L17.7167643,21.8306251 C17.5905738,22.0688631 17.3508119,22.1942516 17.098431,22.1942516" id="Fill-101" fill="#00B487"></path>
                                    <path d="M23.5977452,20.5264602 L18.3356024,20.5264602 C17.96965,20.5264602 17.6667929,20.2267819 17.6667929,19.8631555 C17.6667929,19.4995291 17.96965,19.197343 18.3356024,19.197343 L23.5977452,19.197343 C23.9636976,19.197343 24.2665548,19.4995291 24.2665548,19.8631555 C24.2665548,20.2267819 23.9763167,20.5264602 23.5977452,20.5264602" id="Fill-102" fill="#00B487"></path>
                                </g>
                            </g>
                        </g>
                        <g id="Accounting" transform="translate(214.000000, 275.000000)">
                            <g id="Group-20" transform="translate(12.000000, 0.000000)">
                                <g>
                                    <path d="M24.9484615,66.8978978 L24.9484615,66.8978978 C11.1646923,66.8978978 2.07697107e-12,55.7700717 2.07697107e-12,42.0350717 L2.07697107e-12,31.7228978 C2.07697107e-12,17.9878978 11.1646923,6.86007174 24.9484615,6.86007174 C38.7307692,6.86007174 49.8954615,17.9878978 49.8954615,31.7228978 L49.8954615,42.0350717 C49.8954615,55.7700717 38.7307692,66.8978978 24.9484615,66.8978978" id="Fill-68" fill="#A9E2FF"></path>
                                    <path d="M31.0714308,60.8093457 L31.0714308,60.8093457 C17.2891231,60.8093457 6.12443077,49.6815196 6.12443077,35.9465196 L6.12443077,25.6343457 C6.12443077,11.8993457 17.2891231,0.771519565 31.0714308,0.771519565 C44.8552,0.771519565 56.0198923,11.8993457 56.0198923,25.6343457 L56.0198923,35.9465196 C56.0067385,49.6815196 44.8391231,60.8093457 31.0714308,60.8093457" id="Fill-70" fill="#FFFFFF"></path>
                                    <path d="M21.9226385,1.55847826 C13.6357154,1.55847826 6.89802308,8.27304348 6.89802308,16.5315217 L6.89802308,45.0502174 C6.89802308,53.3086957 13.6357154,60.0232609 21.9226385,60.0232609 L40.1918692,60.0232609 C48.4787923,60.0232609 55.2164846,53.3086957 55.2164846,45.0502174 L55.2164846,16.5315217 C55.2164846,8.27304348 48.4787923,1.55847826 40.1918692,1.55847826 L21.9226385,1.55847826 Z M40.2064846,61.5817391 L21.9372538,61.5817391 C12.7880231,61.5817391 5.34879231,54.1680435 5.34879231,45.0502174 L5.34879231,16.5315217 C5.34879231,7.41369565 12.7880231,-1.86285769e-13 21.9372538,-1.86285769e-13 L40.2064846,-1.86285769e-13 C49.3571769,-1.86285769e-13 56.7949462,7.41369565 56.7949462,16.5315217 L56.7949462,45.0502174 C56.7817923,54.1680435 49.3411,61.5817391 40.2064846,61.5817391 L40.2064846,61.5817391 Z" id="Fill-72" fill="#00B487"></path>
                                    <polyline id="Fill-74" fill="#FFFFFF" points="22.8874 22.9397804 16.9243231 28.8823891 13.4897077 25.4449978"></polyline>
                                    <path d="M16.9241769,29.6542 L16.9241769,29.6542 C16.7195615,29.6542 16.5149462,29.5668087 16.3687923,29.4211565 L12.9356385,25.9837652 C12.6272538,25.6793522 12.6272538,25.1972435 12.9356385,24.8913739 C13.2411,24.5869609 13.7234077,24.5869609 14.0317923,24.8913739 L16.9241769,27.775287 L22.3318692,22.3861565 C22.6387923,22.080287 23.1211,22.080287 23.4280231,22.3861565 C23.7349462,22.6920261 23.7349462,23.1726783 23.4280231,23.4785478 L17.4649462,29.4211565 C17.3334077,29.5668087 17.1287923,29.6542 16.9241769,29.6542" id="Fill-76" fill="#00B487"></path>
                                    <path d="M49.4876923,26.5376804 L28.937,26.5376804 C28.5131538,26.5376804 28.1638462,26.1881152 28.1638462,25.7657239 C28.1638462,25.3433326 28.5131538,24.9937674 28.937,24.9937674 L49.4876923,24.9937674 C49.9115385,24.9937674 50.2608462,25.3433326 50.2608462,25.7657239 C50.2769231,26.1881152 49.9261538,26.5376804 49.4876923,26.5376804" id="Fill-78" fill="#00B487"></path>
                                    <polyline id="Fill-80" fill="#FFFFFF" points="22.8874 38.2189848 16.9243231 44.1615935 13.4897077 40.7242022"></polyline>
                                    <path d="M16.9241769,44.9334043 L16.9241769,44.9334043 C16.7195615,44.9334043 16.5149462,44.846013 16.3687923,44.7003609 L12.9356385,41.2629696 C12.6272538,40.9571 12.6272538,40.4618826 12.9356385,40.1705783 C13.2411,39.8647087 13.7234077,39.8647087 14.0317923,40.1705783 L16.9241769,43.0544913 L22.3318692,37.6653609 C22.6387923,37.3594913 23.1211,37.3594913 23.4280231,37.6653609 C23.7349462,37.9712304 23.7349462,38.4518826 23.4280231,38.7577522 L17.4649462,44.7003609 C17.3334077,44.8605783 17.1287923,44.9334043 16.9241769,44.9334043" id="Fill-82" fill="#00B487"></path>
                                    <path d="M42.18,41.8163022 L28.9530769,41.8163022 C28.5292308,41.8163022 28.1784615,41.466737 28.1784615,41.0443457 C28.1784615,40.6219543 28.5292308,40.2723891 28.9530769,40.2723891 L42.18,40.2723891 C42.6038462,40.2723891 42.9531538,40.6219543 42.9531538,41.0443457 C42.9531538,41.466737 42.6038462,41.8163022 42.18,41.8163022" id="Fill-84" fill="#00B487"></path>
                                    <polygon id="Fill-86" fill="#00B487" points="7.46875385 15.8321 54.7495231 15.8321 54.7495231 10.4284043 7.46875385 10.4284043"></polygon>
                                </g>
                            </g>
                            <text font-family="ProximaNova-Semibold, Proxima Nova" font-size="16" font-weight="500" fill="#4C4D5F">
                                <tspan x="0" y="92">Accounting</tspan>
                            </text>
                        </g>
                        <g id="Tasks" transform="translate(59.000000, 275.000000)">
                            <g id="Group-21">
                                <g>
                                    <path d="M0.86095,19.8702 L0.86095,54.7510333 C0.86095,55.05345 1.10023571,55.2893667 1.40333095,55.2893667 L51.9723786,55.2893667 C59.5976167,55.2893667 65.7711881,49.1618667 65.7711881,41.5951167 L65.7711881,1.36261667 C65.7711881,1.0602 65.5319024,0.824283333 65.2304024,0.824283333 L1.40333095,0.824283333" id="Fill-114" fill="#FFFFFF"></path>
                                    <path d="M51.9569048,56.1291667 L1.38785714,56.1291667 C0.622142857,56.1291667 -3.26443634e-12,55.5116667 -3.26443634e-12,54.7516667 L-3.26443634e-12,19.8708333 C-3.26443634e-12,19.4116667 0.382857143,19.0316667 0.84547619,19.0316667 C1.30809524,19.0316667 1.69095238,19.4116667 1.69095238,19.8708333 L1.69095238,54.4508333 L51.9409524,54.4508333 C59.087619,54.4508333 64.8942857,48.6875 64.8942857,41.5941667 L64.8942857,1.67833333 L1.37190476,1.67833333 C0.909285714,1.67833333 0.526428571,1.29833333 0.526428571,0.839166667 C0.526428571,0.38 0.909285714,-1.5187851e-13 1.37190476,-1.5187851e-13 L65.197381,-1.5187851e-13 C65.9630952,-1.5187851e-13 66.5852671,0.6175 66.5852671,1.3775 L66.5852671,41.5941667 C66.6011905,49.6058333 60.0288095,56.1291667 51.9569048,56.1291667" id="Fill-115" fill="#00B487"></path>
                                    <polygon id="Fill-116" fill="#A9E2FF" points="7.8651619 38.20425 20.609519 38.20425 20.609519 10.5925 7.8651619 10.5925"></polygon>
                                    <polygon id="Fill-117" fill="#FFFFFF" points="27.2313524 27.3441667 39.9773048 27.3441667 39.9773048 10.5925 27.2313524 10.5925"></polygon>
                                    <path d="M28.0768286,26.505 L39.1158762,26.505 L39.1158762,11.4316667 L28.0768286,11.4316667 L28.0768286,26.505 Z M39.9773048,28.1833333 L27.2313524,28.1833333 C26.7687333,28.1833333 26.384281,27.8033333 26.384281,27.3441667 L26.384281,10.5925 C26.384281,10.1333333 26.7687333,9.75333333 27.2313524,9.75333333 L39.9773048,9.75333333 C40.4399238,9.75333333 40.8211857,10.1333333 40.8211857,10.5925 L40.8211857,27.3441667 C40.8211857,27.8033333 40.4399238,28.1833333 39.9773048,28.1833333 L39.9773048,28.1833333 Z" id="Fill-118" fill="#00B487"></path>
                                    <polygon id="Fill-119" fill="#FFFFFF" points="46.069519 32.2208333 58.8154714 32.2208333 58.8154714 10.5925 46.069519 10.5925"></polygon>
                                    <path d="M46.9149952,31.3658333 L57.9540429,31.3658333 L57.9540429,11.4316667 L46.9149952,11.4316667 L46.9149952,31.3658333 Z M58.8011143,33.0441667 L46.0535667,33.0441667 C45.5909476,33.0441667 45.2080905,32.6641667 45.2080905,32.205 L45.2080905,10.5766667 C45.2080905,10.1175 45.5909476,9.7375 46.0535667,9.7375 L58.8011143,9.7375 C59.2637333,9.7375 59.6465905,10.1175 59.6465905,10.5766667 L59.6465905,32.205 C59.6465905,32.68 59.2780905,33.0441667 58.8011143,33.0441667 L58.8011143,33.0441667 Z" id="Fill-120" fill="#00B487"></path>
                                    <polygon id="Fill-121" fill="#00B487" points="7.8651619 18.9683333 20.609519 18.9683333 20.609519 10.5925 7.8651619 10.5925"></polygon>
                                    <polygon id="Fill-122" fill="#00B487" points="27.2313524 15.675 39.9773048 15.675 39.9773048 10.5925 27.2313524 10.5925"></polygon>
                                    <polygon id="Fill-123" fill="#00B487" points="46.069519 17.1475 58.8154714 17.1475 58.8154714 10.5925 46.069519 10.5925"></polygon>
                                </g>
                            </g>
                            <text font-family="ProximaNova-Semibold, Proxima Nova" font-size="16" font-weight="500" fill="#4C4D5F">
                                <tspan x="13" y="92">Tasks</tspan>
                            </text>
                        </g>
                        <g id="Time-Tracking" transform="translate(362.000000, 132.000000)">
                            <g id="Group-17" transform="translate(21.000000, 0.000000)">
                                <g>
                                    <path d="M34.866014,60.0846889 C33.609414,60.2435778 32.316214,60.3291333 31.010814,60.3291333 C14.601814,60.3291333 1.303814,47.0069111 1.303814,30.5680222 C1.303814,14.1291333 14.601814,0.806911111 31.010814,0.806911111 C47.419814,0.806911111 60.716594,14.1291333 60.716594,30.5680222 C60.716594,33.9902444 60.144414,37.2902444 59.070814,40.3580222" id="Fill-25" fill="#FFFFFF"></path>
                                    <path d="M31.010692,60.9767889 C30.656892,60.9767889 30.351892,60.6834556 30.351892,60.3290111 C30.351892,59.9745667 30.632492,59.6812333 30.986292,59.6812333 C32.279492,59.6812333 33.548292,59.5956778 34.792692,59.4367889 C35.146492,59.3879 35.475892,59.6445667 35.524692,59.9990111 C35.573492,60.3534556 35.317292,60.6834556 34.963492,60.7323444 C33.658092,60.8912333 32.328292,60.9767889 31.010692,60.9767889" id="Fill-27" fill="#00B487"></path>
                                    <g id="Group-31">
                                        <mask id="mask-2" fill="white">
                                            <use xlink:href="#path-1"></use>
                                        </mask>
                                        <g id="Clip-30"></g>
                                        <path d="M18.017204,4.46098889 C17.774424,4.46098889 17.541404,4.32654444 17.432824,4.09432222 C17.274224,3.77654444 17.407204,3.38543333 17.737824,3.22654444 C20.275424,1.9921 22.959424,1.1121 25.739804,0.635433333 C26.093604,0.574322222 26.435204,0.806544444 26.496204,1.16098889 C26.557204,1.51543333 26.326624,1.85765556 25.972824,1.91876667 C23.313224,2.38321111 20.737804,3.22654444 18.310004,4.39987778 C18.212404,4.43654444 18.114804,4.46098889 18.017204,4.46098889 M46.967804,6.12321111 C46.847024,6.12321111 46.723804,6.08654444 46.614004,6.02543333 C44.332604,4.57098889 41.869424,3.44654444 39.294004,2.67654444 C38.952404,2.57876667 38.757204,2.2121 38.854804,1.86987778 C38.952404,1.52765556 39.319624,1.3321 39.660004,1.42987778 C42.356204,2.23654444 44.931624,3.40987778 47.310624,4.93765556 C47.615624,5.13321111 47.699804,5.53654444 47.504604,5.82987778 C47.382604,6.01321111 47.175204,6.12321111 46.967804,6.12321111 M3.390624,20.2765444 C3.304004,20.2765444 3.232024,20.2643222 3.146624,20.2276556 C2.816004,20.0932111 2.645204,19.7143222 2.780624,19.3843222 C3.816404,16.7687667 5.220624,14.2998778 6.939604,12.0509889 C7.160424,11.7698778 7.563024,11.7087667 7.854604,11.9287667 C8.135204,12.1487667 8.196204,12.5521 7.977824,12.8454333 C6.329604,14.9965444 4.987604,17.3554333 4.000624,19.8609889 C3.889604,20.1176556 3.646824,20.2765444 3.390624,20.2765444 M59.704604,23.5154333 C59.424004,23.5154333 59.156824,23.3198778 59.082404,23.0387667 C58.388224,20.4354333 57.326824,17.9298778 55.934804,15.6198778 C55.753024,15.3143222 55.850624,14.9109889 56.155624,14.7276556 C56.460624,14.5443222 56.863224,14.6421 57.045004,14.9476556 C58.498024,17.3676556 59.607004,19.9832111 60.339004,22.7087667 C60.437824,23.0509889 60.230424,23.4176556 59.876624,23.5032111 C59.815624,23.5032111 59.753404,23.5154333 59.704604,23.5154333 M3.255204,41.8365444 C2.999004,41.8365444 2.742804,41.6776556 2.645204,41.4209889 C1.644804,38.7809889 1.011624,36.0187667 0.766404,33.2076556 C0.743224,32.8532111 0.999424,32.5354333 1.353224,32.4987667 C1.707024,32.4621 2.024224,32.7309889 2.059604,33.0976556 C2.291404,35.7987667 2.890424,38.4387667 3.854224,40.9565444 C3.975004,41.2865444 3.816404,41.6654333 3.474804,41.7998778 C3.413804,41.8243222 3.328404,41.8365444 3.255204,41.8365444 M17.700004,57.8354333 C17.602404,57.8354333 17.504804,57.8109889 17.407204,57.7621 C14.894004,56.4909889 12.563804,54.8898778 10.489804,52.9709889 C10.221404,52.7265444 10.210424,52.3109889 10.454424,52.0543222 C10.697204,51.7854333 11.113224,51.7732111 11.369424,52.0176556 C13.358024,53.8509889 15.590624,55.3909889 17.992804,56.6009889 C18.310004,56.7598778 18.445424,57.1509889 18.286824,57.4687667 C18.163604,57.7009889 17.933024,57.8354333 17.700004,57.8354333" id="Fill-29" fill="#00B487" mask="url(#mask-2)"></path>
                                    </g>
                                    <path d="M59.070692,41.0179 C58.997492,41.0179 58.924292,41.0056778 58.851092,40.9812333 C58.509492,40.8590111 58.338692,40.4923444 58.448492,40.1501222 C58.863292,38.9523444 59.204892,37.7179 59.461092,36.4712333 C59.534292,36.1167889 59.875892,35.8967889 60.229692,35.9701222 C60.583492,36.0434556 60.803092,36.3856778 60.729892,36.7401222 C60.461492,38.0479 60.107692,39.3312333 59.668492,40.5779 C59.583092,40.8467889 59.339092,41.0179 59.070692,41.0179" id="Fill-32" fill="#00B487"></path>
                                    <path d="M50.579492,44.66 C56.218332,44.66 60.790892,49.2408889 60.790892,54.89 C60.790892,60.5403333 56.218332,65.12 50.579492,65.12 C44.939432,65.12 40.368092,60.5403333 40.368092,54.89 C40.368092,49.2408889 44.939432,44.66 50.579492,44.66" id="Fill-34" fill="#A9E2FF"></path>
                                    <polyline id="Fill-36" fill="#FFFFFF" points="30.668726 13.5667889 30.668726 31.1056778 38.391326 38.8423444"></polyline>
                                    <path d="M38.391448,39.5019778 C38.220648,39.5019778 38.062048,39.4408667 37.927848,39.3064222 L30.205248,31.5697556 C30.083248,31.4475333 30.010048,31.2764222 30.010048,31.1053111 L30.010048,13.5664222 C30.010048,13.2119778 30.302848,12.9186444 30.656648,12.9186444 C31.010448,12.9186444 31.303248,13.2119778 31.303248,13.5664222 L31.303248,30.8364222 L38.842848,38.3775333 C39.099048,38.6342 39.099048,39.0375333 38.842848,39.2942 C38.722068,39.4408667 38.563468,39.5019778 38.391448,39.5019778" id="Fill-38" fill="#00B487"></path>
                                    <path d="M31.010692,27.1455556 C32.904132,27.1455556 34.438892,28.6831111 34.438892,30.58 C34.438892,32.4768889 32.904132,34.0144444 31.010692,34.0144444 C29.117252,34.0144444 27.582492,32.4768889 27.582492,30.58 C27.582492,28.6831111 29.117252,27.1455556 31.010692,27.1455556" id="Fill-40" fill="#00B487"></path>
                                    <path d="M49.750258,58.4219778 L49.750258,58.4219778 C49.578238,58.4219778 49.408658,58.3486444 49.286658,58.2264222 L46.419658,55.3419778 C46.163458,55.0853111 46.163458,54.6819778 46.419658,54.4253111 C46.674638,54.1686444 47.078458,54.1686444 47.334658,54.4253111 L49.750258,56.8453111 L54.263038,52.3230889 C54.519238,52.0664222 54.921838,52.0664222 55.178038,52.3230889 C55.434238,52.5797556 55.434238,52.9830889 55.178038,53.2397556 L50.201658,58.2264222 C50.090638,58.3608667 49.921058,58.4219778 49.750258,58.4219778" id="Fill-42" fill="#00B487"></path>
                                </g>
                            </g>
                            <text font-family="ProximaNova-Semibold, Proxima Nova" font-size="16" font-weight="500" fill="#4C4D5F">
                                <tspan x="0" y="97">Time Tracking</tspan>
                            </text>
                        </g>
                        <g id="Expenses" transform="translate(221.000000, 129.000000)">
                            <g id="Group-19" transform="translate(6.000000, 0.000000)">
                                <g>
                                    <path d="M24.9682146,9.7016412e-14 L42.6833366,9.7016412e-14 C49.7721171,9.7016412e-14 55.5073366,5.74826923 55.5073366,12.8209615 L55.5073366,55.5438462 L49.7448,61.9065385 L43.9808976,55.5438462 L37.7662634,61.9065385 L31.6595317,55.5438462 L25.5555317,61.9065385 L19.682361,55.5438462 L13.5769951,61.9065385 L8.5492878,55.5438462 L8.5492878,0.450576923" id="Fill-56" fill="#A9E2FF"></path>
                                    <path d="M17.1559415,7.68697885 L34.8710634,7.68697885 C41.958478,7.68697885 47.6950634,13.4352481 47.6950634,20.5079404 L47.6950634,63.230825 L41.9325268,69.5935173 L36.1686244,63.230825 L29.9526244,69.5935173 L23.8472585,63.230825 L17.7432585,69.5935173 L11.8700878,63.230825 L5.7633561,69.5935173 L0.737014634,63.230825 L0.737014634,8.13755577" id="Fill-58" fill="#FFFFFF"></path>
                                    <path d="M41.9317073,70.3174442 L41.9317073,70.3174442 C41.7268293,70.3174442 41.5356098,70.2355212 41.4003902,70.0853288 L36.1541463,64.2960981 L30.473561,70.1126365 C30.3356098,70.249175 30.1170732,70.3310981 29.9531707,70.3310981 C29.7619512,70.3310981 29.5707317,70.249175 29.4341463,70.1126365 L23.8478049,64.2960981 L18.2614634,70.1126365 C18.1262439,70.249175 17.9336585,70.3310981 17.742439,70.3310981 L17.7301463,70.3310981 C17.5239024,70.3310981 17.3340488,70.249175 17.1960976,70.0989827 L11.8419512,64.3097519 L6.26926829,70.1126365 C6.12039024,70.2628288 5.91414634,70.3447519 5.70926829,70.3310981 C5.50439024,70.3174442 5.2995122,70.2218673 5.17658537,70.0580212 L0.150243902,63.6953288 C0.0546341463,63.5724442 -5.82298437e-13,63.4085981 -5.82298437e-13,63.2447519 L-5.82298437e-13,8.15148269 C-5.82298437e-13,7.75552115 0.327804878,7.42782885 0.723902439,7.42782885 C1.12,7.42782885 1.44780488,7.75552115 1.44780488,8.15148269 L1.44780488,62.9853288 L5.79121951,68.4878288 L11.3229268,62.7259058 C11.4595122,62.5893673 11.6507317,62.5074442 11.8419512,62.5074442 L11.8556098,62.5074442 C12.0604878,62.5074442 12.2517073,62.5893673 12.3882927,62.7395596 L17.742439,68.5287904 L23.315122,62.7259058 C23.5896585,62.439175 24.0936585,62.439175 24.3668293,62.7259058 L29.9531707,68.5424442 L35.6487805,62.7122519 C35.7853659,62.5757135 35.9902439,62.5074442 36.1814634,62.4937904 C36.3863415,62.4937904 36.577561,62.5893673 36.7004878,62.7259058 L41.9317073,68.4878288 L46.9717073,62.9307135 L46.9717073,20.4809058 C46.9717073,13.804175 41.5356098,8.38359808 34.8702439,8.38359808 L17.1564878,8.38359808 C16.7603902,8.38359808 16.4312195,8.05590577 16.4312195,7.65994423 C16.4312195,7.26398269 16.7603902,6.93629038 17.1564878,6.93629038 L34.8702439,6.93629038 C42.3414634,6.93629038 48.4331707,13.0122519 48.4331707,20.4945596 L48.4331707,63.2174442 C48.4331707,63.3949442 48.364878,63.5724442 48.2419512,63.7089827 L42.4780488,70.071675 C42.3278049,70.2355212 42.1379512,70.3174442 41.9317073,70.3174442 L41.9317073,70.3174442 Z" id="Fill-60" fill="#00B487"></path>
                                    <path d="M21.5803512,23.6622519 C21.5803512,22.7474442 22.2496195,22.0374442 23.589522,21.9009058 L23.589522,25.6147519 C21.9764488,25.0822519 21.5803512,24.5497519 21.5803512,23.6622519 L21.5803512,23.6622519 Z M25.2422049,28.536675 C26.8525463,29.0418673 27.3169366,29.601675 27.3169366,30.5301365 C27.3169366,31.5405212 26.5793756,32.1959058 25.2422049,32.3460981 L25.2422049,28.536675 Z M19.2187902,32.7693673 C20.4876683,33.6705212 21.936839,34.2303288 23.5062049,34.394175 L23.5062049,35.6912904 C23.5062049,36.1964827 23.915961,36.5924442 24.4213268,36.5924442 C24.9266927,36.5924442 25.3227902,36.1964827 25.3227902,35.6912904 L25.3227902,34.4351365 C27.9862049,34.1893673 29.7904976,32.6601365 29.7904976,30.3526365 C29.7904976,28.0997519 28.4246439,26.8299442 25.2544976,26.0380212 L25.2544976,22.0237904 C25.9647415,22.1876365 26.6749854,22.5153288 27.4139122,22.9385981 C27.6174244,23.0614827 27.8223024,23.1297519 28.0285463,23.1297519 C28.6827902,23.1297519 29.2018146,22.6245596 29.2018146,21.9828288 C29.2018146,21.4776365 28.9013268,21.1635981 28.5871805,20.9724442 C27.6324488,20.371675 26.5793756,19.9620596 25.3364488,19.8255212 L25.3364488,19.3612904 C25.3364488,18.8560981 24.9403512,18.4601365 24.4349854,18.4601365 C23.9309854,18.4601365 23.5198634,18.8560981 23.5198634,19.3612904 L23.5198634,19.7982135 C20.8974244,20.0030212 19.1218146,21.5595596 19.1218146,23.7851365 C19.1218146,26.1472519 20.5423024,27.3078288 23.6018146,28.0997519 L23.6018146,32.2232135 C22.4558634,32.0184058 21.4861073,31.5268673 20.5013268,30.8168673 C20.3101073,30.666675 20.0656195,30.5847519 19.8047415,30.5847519 C19.1504976,30.5847519 18.6574244,31.0899442 18.6574244,31.731675 C18.6574244,32.2095596 18.8636683,32.5372519 19.2187902,32.7693673 L19.2187902,32.7693673 Z" id="Fill-62" fill="#00B487"></path>
                                    <path d="M37.3569171,45.2623635 L11.0642341,45.2623635 C10.6681366,45.2623635 10.3403317,44.9346712 10.3403317,44.5387096 C10.3403317,44.1427481 10.6681366,43.8150558 11.0642341,43.8150558 L37.3569171,43.8150558 C37.7516488,43.8150558 38.0794537,44.1427481 38.0794537,44.5387096 C38.0931122,44.9346712 37.7666732,45.2623635 37.3569171,45.2623635" id="Fill-64" fill="#00B487"></path>
                                    <path d="M34.8160195,50.983325 L13.6043122,50.983325 C13.2082146,50.983325 12.8790439,50.6556327 12.8790439,50.2596712 C12.8790439,49.8637096 13.2082146,49.5360173 13.6043122,49.5360173 L34.8160195,49.5360173 C35.2121171,49.5360173 35.539922,49.8637096 35.539922,50.2596712 C35.539922,50.6556327 35.2121171,50.983325 34.8160195,50.983325" id="Fill-66" fill="#00B487"></path>
                                </g>
                            </g>
                            <text font-family="ProximaNova-Semibold, Proxima Nova" font-size="16" font-weight="500" fill="#4C4D5F">
                                <tspan x="0" y="100">Expenses</tspan>
                            </text>
                        </g>
                        <g id="Invoices" transform="translate(63.000000, 132.000000)">
                            <text font-family="ProximaNova-Semibold, Proxima Nova" font-size="16" font-weight="500" fill="#4C4D5F">
                                <tspan x="0" y="97">Invoices</tspan>
                            </text>
                            <g id="Group-18">
                                <g>
                                    <path d="M21.5867258,1.28 L55.2735723,1.28 C55.564108,1.28 55.7934783,1.506493 55.7934783,1.79338412 L55.7934783,49.6589039 C55.7934783,56.8764807 49.8757254,62.72 42.5664595,62.72 L3.72642768,62.72 C3.43589201,62.72 3.20652174,62.493507 3.20652174,62.2066159 L3.20652174,1.79338412" id="Fill-44" fill="#FFFFFF"></path>
                                    <path d="M41.8436162,64 L3.24595879,64 C2.51655424,64 1.92391304,63.4020125 1.92391304,62.6660278 L1.92391304,1.3186392 C1.92391304,0.873981792 2.28861532,0.505989459 2.72929723,0.505989459 C3.16997915,0.505989459 3.53468143,0.873981792 3.53468143,1.3186392 L3.53468143,62.3747005 L41.8436162,62.3747005 C48.651392,62.3747005 54.1827099,56.7934835 54.1827099,49.9242932 L54.1827099,1.62529947 L20.9948028,1.62529947 C20.5541209,1.62529947 20.1894187,1.25730714 20.1894187,0.812649736 C20.1894187,0.367992333 20.5541209,0 20.9948028,0 L54.4714325,0 C55.2008371,0 55.7934783,0.597987542 55.7934783,1.33397221 L55.7934783,49.9396263 C55.7934783,57.6827983 49.5327559,64 41.8436162,64 L41.8436162,64 Z" id="Fill-46" fill="#00B487"></path>
                                    <path d="M58.3586957,28.16 L58.3586957,28.16 L58.3586957,64 L0.641304348,64 L0.641304348,28.16 L26.046629,52.7652203 C28.3589518,54.9911204 32.0314645,54.9460008 34.2833345,52.6599413 L58.3586957,28.16 Z" id="Fill-48" fill="#A9E2FF"></path>
                                    <path d="M28.6064098,55.04 C26.96188,55.04 25.3023999,54.4002856 24.0465771,53.1208568 L2.15937982,30.8222401 C1.84542412,30.5023829 1.84542412,29.9997501 2.15937982,29.6798929 C2.47333552,29.3600357 2.96669447,29.3600357 3.28065017,29.6798929 L25.1678474,51.9785096 C27.0665319,53.9128841 30.1462878,53.9128841 32.030022,51.9785096 L46.741089,36.9909148 C47.0550447,36.6710576 47.5484036,36.6710576 47.8623593,36.9909148 C48.176315,37.310772 48.176315,37.8134047 47.8623593,38.1332619 L33.1512923,53.1208568 C31.9104198,54.4002856 30.2658899,55.04 28.6064098,55.04" id="Fill-50" fill="#00B487"></path>
                                    <path d="M28.8586957,8.96 C36.6501572,8.96 42.9673913,15.2628434 42.9673913,23.04 C42.9673913,30.8156145 36.6501572,37.12 28.8586957,37.12 C21.0672342,37.12 14.75,30.8156145 14.75,23.04 C14.75,15.2628434 21.0672342,8.96 28.8586957,8.96" id="Fill-52" fill="#00B487"></path>
                                    <path d="M25.8134836,18.6756627 C25.8134836,17.6424096 26.5846226,16.8404819 28.1269005,16.6862651 L28.1269005,20.8809639 C26.269872,20.2795181 25.8134836,19.6780723 25.8134836,18.6756627 L25.8134836,18.6756627 Z M30.0311416,24.1657831 C31.8881702,24.7363855 32.4232462,25.3686747 32.4232462,26.4173494 C32.4232462,27.5585542 31.5734196,28.2987952 30.0311416,28.4684337 L30.0311416,24.1657831 Z M23.0908909,28.9619277 C24.5544812,29.979759 26.2226594,30.6120482 28.0324753,30.7971084 L28.0324753,32.2621687 C28.0324753,32.8327711 28.5046012,33.28 29.0868898,33.28 C29.6691784,33.28 30.1255668,32.8327711 30.1255668,32.2621687 L30.1255668,30.8433735 C33.1943852,30.5657831 35.2717391,28.8385542 35.2717391,26.2322892 C35.2717391,23.6877108 33.6979861,22.253494 30.0468792,21.3590361 L30.0468792,16.8250602 C30.8652307,17.0101205 31.6835823,17.380241 32.5334089,17.8583133 C32.7694719,17.9971084 33.0055348,18.0742169 33.2415978,18.0742169 C33.9969992,18.0742169 34.5950253,17.5036145 34.5950253,16.7787952 C34.5950253,16.2081928 34.2487997,15.853494 33.8868365,15.6375904 C32.7852094,14.9590361 31.5734196,14.4963855 30.1413043,14.3421687 L30.1413043,13.8178313 C30.1413043,13.2472289 29.684916,12.8 29.1026274,12.8 C28.5203388,12.8 28.0482129,13.2472289 28.0482129,13.8178313 L28.0482129,14.3113253 C25.0266071,14.5426506 22.9807282,16.3007229 22.9807282,18.8144578 C22.9807282,21.4824096 24.6174313,22.793253 28.142638,23.6877108 L28.142638,28.3450602 C26.8206855,28.1137349 25.7033209,27.5585542 24.5702187,26.7566265 C24.3498933,26.586988 24.0666178,26.4944578 23.7676047,26.4944578 C23.0122033,26.4944578 22.4456522,27.0650602 22.4456522,27.7898795 C22.4456522,28.3296386 22.6817151,28.699759 23.0908909,28.9619277 L23.0908909,28.9619277 Z" id="Fill-54" fill="#FFFFFF"></path>
                                </g>
                            </g>
                        </g>
                        <g id="Projects" transform="translate(383.000000, 4.000000)">
                            <g id="Project">
                                <g id="Group-86">
                                    <path d="M53.0603553,17.9897542 L29.4779752,17.9897542 L25.5383305,10 L3.93964468,10 C2.89846306,9.99627461 1.89846213,10.4135683 1.15963402,11.1601049 C0.420805914,11.9066414 0.00367258694,12.9212675 0,13.9807735 L0,50.0192515 C0,52.2177582 1.7514176,54 3.91190071,54 L53.0880993,54 C54.1255999,54 55.1206071,53.5806009 55.8542308,52.8340658 C56.5878545,52.0875306 57,51.0750117 57,50.0192515 L57,21.9846188 C56.9923577,19.7760346 55.2307551,17.9897405 53.0603553,17.9897542 Z" id="Path" fill="#A9E2FF"></path>
                                    <path d="M48.2179518,18 L62,18 L62,40.0054289 C62,42.206069 60.2516753,43.9922239 58.0900024,44 L8.90999757,44 C6.75372389,43.992257 5.00760597,42.2146739 5,40.019544 L5,18 L48.1347604,18" id="Path" stroke="#00B487" fill="#FFFFFF" stroke-linecap="round" stroke-linejoin="round"></path>
                                    <path d="M5,16 L5,3.97883598 C5.00763847,1.77910521 6.7621764,0 8.92386281,0 L30.5397713,0 L34.4636342,8 L58.0345415,8 C59.0812896,7.99249206 60.087898,8.40940944 60.8319713,9.15864027 C61.5760445,9.90787111 61.9963402,10.9277485 62,11.9929453 L62,16 L5,16 Z" id="Path" stroke="#00B487" fill="#FFFFFF" stroke-linecap="round" stroke-linejoin="round"></path>
                                    <polygon id="Path" fill="#00B487" points="37 18 37 33 40.9929453 28.459893 45 33 45 18 37 18"></polygon>
                                </g>
                            </g>
                            <text font-family="ProximaNova-Semibold, Proxima Nova" font-size="16" font-weight="500" fill="#4C4D5F">
                                <tspan x="1" y="92">Projects</tspan>
                            </text>
                        </g>
                        <g id="Contacts" transform="translate(221.000000, 1.000000)">
                            <text id="Contracts" font-family="ProximaNova-Semibold, Proxima Nova" font-size="16" font-weight="500" fill="#4C4D5F">
                                <tspan x="0" y="95">Contracts</tspan>
                            </text>
                            <g id="Group-15" transform="translate(7.000000, 0.000000)">
                                <g>
                                    <path d="M15.1680952,9.01058958 L42.9678571,9.01058958 C43.207619,9.01058958 43.3969048,9.20121458 43.3969048,9.44267292 L43.3969048,49.7280896 C43.3969048,55.8026729 38.5133333,60.7207979 32.4814286,60.7207979 L0.429047619,60.7207979 C0.189285714,60.7207979 -3.67621277e-13,60.5301729 -3.67621277e-13,60.2887146 L-3.67621277e-13,9.44267292" id="Fill-1" fill="#A9E2FF"></path>
                                    <polygon id="Fill-3" fill="#00B487" points="13.8433476 21.1853 19.1938238 17.5380083 24.6957286 21.1853 24.6957286 9.03613333 13.8433476 9.03613333"></polygon>
                                    <path d="M32.9863167,45.2547562 L8.69465,45.2547562 C8.32869762,45.2547562 8.02584048,44.9497562 8.02584048,44.5812146 C8.02584048,44.2126729 8.32869762,43.9076729 8.69465,43.9076729 L32.9863167,43.9076729 C33.352269,43.9076729 33.6551262,44.2126729 33.6551262,44.5812146 C33.6551262,44.9624646 33.352269,45.2547562 32.9863167,45.2547562" id="Fill-5" fill="#00B487"></path>
                                    <path d="M28.2794119,50.591875 L8.68203095,50.591875 C8.31607857,50.591875 8.01322143,50.286875 8.01322143,49.9183333 C8.01322143,49.5497917 8.31607857,49.2447917 8.68203095,49.2447917 L28.2794119,49.2447917 C28.6453643,49.2447917 28.9482214,49.5497917 28.9482214,49.9183333 C28.9482214,50.286875 28.6579833,50.591875 28.2794119,50.591875" id="Fill-7" fill="#00B487"></path>
                                    <path d="M23.6354762,0.660833333 L51.4352381,0.660833333 C51.675,0.660833333 51.8642857,0.851458333 51.8642857,1.09291667 L51.8642857,41.3783333 C51.8642857,47.4529167 46.9807143,52.3710417 40.9488095,52.3710417 L8.89642857,52.3710417 C8.65666667,52.3710417 8.46738095,52.1804167 8.46738095,51.9389583 L8.46738095,1.09291667" id="Fill-9" fill="#FFFFFF"></path>
                                    <path d="M40.9364429,53.0445833 L8.8840619,53.0445833 C8.27834762,53.0445833 7.78620476,52.5489583 7.78620476,51.9389583 L7.78620476,1.09291667 C7.78620476,0.724375 8.0890619,0.419375 8.45501429,0.419375 C8.82096667,0.419375 9.12382381,0.724375 9.12382381,1.09291667 L9.12382381,51.6975 L40.9364429,51.6975 C46.5897762,51.6975 51.1831095,47.0716667 51.1831095,41.3783333 L51.1831095,1.34708333 L23.6231095,1.34708333 C23.2571571,1.34708333 22.9543,1.04208333 22.9543,0.673541667 C22.9543,0.305 23.2571571,-1.44477023e-13 23.6231095,-1.44477023e-13 L51.4228714,-1.44477023e-13 C52.0285857,-1.44477023e-13 52.5207515,0.495625 52.5207515,1.105625 L52.5207515,41.3910417 C52.5333476,47.80875 47.3343,53.0445833 40.9364429,53.0445833 L40.9364429,53.0445833 Z" id="Fill-11" fill="#00B487"></path>
                                    <polygon id="Fill-13" fill="#00B487" points="22.9163167 12.7212958 28.2794119 9.07400417 33.7686976 12.7212958 33.7686976 0.5848375 22.9163167 0.5848375"></polygon>
                                    <path d="M41.4536976,36.9180896 L17.162031,36.9180896 C16.7960786,36.9180896 16.4932214,36.6130896 16.4932214,36.2445479 C16.4932214,35.8760063 16.7960786,35.5710063 17.162031,35.5710063 L41.4536976,35.5710063 C41.81965,35.5710063 42.1225071,35.8760063 42.1225071,36.2445479 C42.1225071,36.6130896 41.832269,36.9180896 41.4536976,36.9180896" id="Fill-15" fill="#00B487"></path>
                                    <path d="M36.7467929,42.2552083 L17.1494119,42.2552083 C16.7834595,42.2552083 16.4806024,41.9502083 16.4806024,41.5816667 C16.4806024,41.213125 16.7834595,40.908125 17.1494119,40.908125 L36.7467929,40.908125 C37.1127452,40.908125 37.4156024,41.213125 37.4156024,41.5816667 C37.4282214,41.9502083 37.1253643,42.2552083 36.7467929,42.2552083" id="Fill-17" fill="#00B487"></path>
                                </g>
                            </g>
                        </g>
                        <g id="Proposals" transform="translate(57.000000, 0.000000)">
                            <g id="Group-16" transform="translate(3.000000, 0.000000)">
                                <g>
                                    <path d="M2.41621044,31.696637 C0.0549859471,32.9432327 0.14784309,34.7796157 2.62845533,35.7849348 L9.96416962,38.7204668 C12.4447819,39.7123817 16.1988635,39.1762114 18.3080472,37.5140838 L50.1991696,12.0996157 C52.2937615,10.4240838 52.5205982,10.6787646 50.7019247,12.6491902 L25.4845778,39.9134455 C23.6539655,41.883871 24.1978431,44.2832327 26.6784553,45.2617434 L27.5407002,45.5968497 C30.0345778,46.5619561 34.0937615,48.1972753 36.5611084,49.2159987 L44.7060064,52.5670625 C47.1733533,53.5857859 49.2042717,54.430254 49.2042717,54.4436582 C49.2042717,54.4570625 49.2162104,54.5106795 49.2294757,54.5106795 C49.242741,54.5106795 49.8264145,52.3928072 50.5308023,49.7923817 L62.9458023,3.68174335 C63.6488635,1.08131782 62.282537,-0.0312353694 59.9213125,1.22876463 L2.41621044,31.696637 Z" id="Fill-19" fill="#FFFFFF"></path>
                                    <path d="M51.9090676,10.2632327 C52.1080472,10.2632327 52.2937615,10.3436582 52.4529451,10.5179136 C53.010088,11.1345093 52.3866186,11.8717434 51.232537,13.1317434 L26.01519,40.3959987 C25.2988635,41.1734455 24.995088,42.0313178 25.1662104,42.7953604 C25.3386594,43.5728072 25.9753941,44.2028072 26.9437615,44.5915306 L27.8060064,44.926637 C30.2733533,45.8917434 34.332537,47.5270625 36.8264145,48.5457859 L44.9713125,51.8968497 C46.9345778,52.7011051 48.0886594,53.1836582 48.7917206,53.4785519 C49.0172308,52.6877008 49.3886594,51.3204668 49.8529451,49.5779136 L62.2692717,3.46727527 C62.5213125,2.54238165 62.4682513,1.80514761 62.1498839,1.5370625 C61.8182513,1.2689774 61.1019247,1.38961569 60.2662104,1.83195612 L2.7611084,32.2998285 C1.8988635,32.7555731 1.40804717,33.3051476 1.42105036,33.7608923 C1.44784309,34.2300412 1.99172064,34.7259987 2.90702676,35.0879136 L10.242741,38.0234455 C12.4845778,38.9215306 15.9852921,38.4121689 17.8835574,36.9108923 L49.7733533,11.4964242 C50.7284553,10.7725944 51.3917206,10.2632327 51.9090676,10.2632327 L51.9090676,10.2632327 Z M49.242741,55.2211051 C49.1631492,55.2211051 49.0835574,55.2077008 49.0172308,55.1808923 C48.9243737,55.1540838 48.8447819,55.0870625 48.76519,55.0200412 C48.2743737,54.8055731 46.6029451,54.1085519 44.4539655,53.2372753 L36.3090676,49.8862114 C33.81519,48.867488 29.7560064,47.2321689 27.3019247,46.2670625 L26.4396798,45.9319561 C25.0202921,45.3689774 24.0784553,44.3770625 23.7866186,43.1304668 C23.5080472,41.883871 23.932537,40.570254 24.9804962,39.4308923 L47.1733533,15.423871 L18.7590676,38.0636582 C16.4774349,39.8732327 12.4182513,40.4630199 9.72539411,39.3772753 L2.37641452,36.4417434 C0.3866186,35.637488 0.041720641,34.4847221 0.0019247226,33.8681263 C-0.0246058896,33.2515306 0.200904314,32.0585519 2.08457778,31.066637 L59.5896798,0.598764631 C61.4866186,-0.406554518 62.5478431,0.0759986731 63.0253941,0.451317822 C63.4896798,0.826636971 64.192741,1.7783391 63.6223329,3.86940293 L51.2060064,49.9800412 C49.867537,54.9798285 49.867537,54.9798285 49.5611084,55.1406795 C49.4815166,55.1942965 49.3621288,55.2211051 49.242741,55.2211051 L49.242741,55.2211051 Z" id="Fill-21" fill="#00B487"></path>
                                    <path d="M22.579741,61.8830199 C22.4338227,62.3253604 27.6072921,54.3230199 27.6072921,54.3230199 C29.0664757,52.0711051 28.2440268,49.3768497 25.762088,48.3581263 L20.1243329,46.0257859 C17.6583125,45.0070625 16.4763737,46.2000412 17.4991288,48.6932327 C17.4991288,48.6932327 22.7243329,61.4272753 22.579741,61.8830199" id="Fill-23" fill="#A9E2FF"></path>
                                </g>
                            </g>
                            <text font-family="ProximaNova-Semibold, Proxima Nova" font-size="16" font-weight="500" fill="#4C4D5F">
                                <tspan x="0" y="96">Proposals</tspan>
                            </text>
                        </g>
                    </g>
                </g>
            </g>
        </g>
    </g>
</svg>